<svg width="190" height="190" viewBox="0 0 190 190" fill="none" xmlns="http://www.w3.org/2000/svg">
<g clip-path="url(#clip0_54_2)">
<path d="M190.037 106.312L163.062 20.2625L25.5 49.4375L31.9625 70.825L-0.3125 79.35C-0.3125 79.35 14.75 127.375 24.6625 159.05C34.5875 190.7 58.55 175.675 58.55 175.675C58.55 175.675 162.512 131.95 178.3 125.287C193.2 119.037 190.037 106.312 190.037 106.312ZM35.5875 153.762L15.05 88.2875L35.8 83.4874L61.0625 168.125L69.9125 162.75C41.7625 177.862 35.5875 153.762 35.5875 153.762ZM174.387 118.262C174.387 118.262 154.625 125.925 131.613 135.362L116.85 88.2999L68.525 103.387L84.8375 155.462C80.025 157.712 75.7 159.787 72.0875 161.637L46.8 80.9625L39.75 58.4124L159.775 30.7749C159.775 30.7749 178.375 90.2249 182.05 101.937C185.725 113.65 174.387 118.262 174.387 118.262Z" fill="#243B6D"/>
<path d="M166.987 75.4375L126.875 88.1625L130.012 98.2L169.912 84.75L166.987 75.4375Z" fill="#243B6D"/>
<path d="M132.013 104.575L135.138 114.6L174.688 99.9875L171.763 90.675L132.013 104.575Z" fill="#243B6D"/>
<path d="M80.6428 76.6812L74.7619 57.149L80.0547 56L87.6999 81.2771C88.484 84.1494 88.288 91.931 80.0547 94.4901C71.8214 97.0491 64.1762 89.3198 63 85.8729L68.2928 84.7239C70.0571 88.7453 75.938 90.4687 78.8785 89.3198C82.9952 87.7112 82.4071 85.2984 82.4071 83.0005C82.4071 81.1622 81.0348 78.0217 80.6428 76.6812Z" fill="#243B6D"/>
<path d="M136.935 59.9521C132.376 41.7291 145.59 38.4388 152.767 39.0716V43.5009C147.701 42.8681 138.455 45.0195 142.002 58.6867C144.793 69.4434 154.034 66.9124 158.467 63.1159L161 66.9124C158.467 70.0761 141.843 79.5673 136.935 59.9521Z" fill="#243B6D"/>
<path fill-rule="evenodd" clip-rule="evenodd" d="M126 62.2414L122.5 63.7414C123.5 66.7414 123.5 66.7414 123 70.2414L112.5 64.2414C115 61.7413 118.5 57.2414 116.5 52.7415C114.628 48.529 110.677 47.4471 107.5 48.2414C107.404 48.2655 107.299 48.2908 107.187 48.3177C104.983 48.8505 100 50.0547 100 56.2414C100 61.0581 104.833 64.5747 107.5 65.7414C105.5 67.9081 101.5 72.2414 105 78.7414C107.8 83.9414 115 83.6826 118.5 82.2415C121.853 80.8607 124.195 78.5461 125.617 75.8195L128.5 77.7415L133 75.7415L126.967 72.0291C127.659 68.7569 127.296 65.2658 126 62.2414ZM109.5 62.2414C110.5 61.0748 113 58.1414 113 55.7414C113 52.7414 110.5 51.2416 107.5 51.7414C104.5 52.2413 103.5 55.2414 104 57.2414C104.5 59.2414 109 62.2414 109.5 62.2414ZM110.5 67.2414C109.333 68.2414 107.2 71.1414 108 74.7414C109 79.2414 113.029 80.0356 114.5 79.7414C117 79.2415 120 77.7415 122 73.7414L110.5 67.2414Z" fill="#243B6D"/>
</g>
<defs>
<clipPath id="clip0_54_2">
<rect width="190" height="190" fill="white"/>
</clipPath>
</defs>
</svg>
