<svg width="340" height="215" viewBox="0 0 340 215" fill="none" xmlns="http://www.w3.org/2000/svg">
<path d="M172.38 133.4C145.387 133.4 122.347 136.297 103.26 142.09C84.1733 147.883 74.6433 154.883 74.67 163.09C74.67 171.29 84.2 178.29 103.26 184.09C122.32 189.89 145.36 192.803 172.38 192.83C199.373 192.83 222.4 189.917 241.46 184.09C260.52 178.263 270.063 171.263 270.09 163.09C270.09 154.897 260.547 147.897 241.46 142.09C222.373 136.283 199.347 133.387 172.38 133.4Z" fill="#223C6D"/>
<path d="M269.89 162.13L244.3 53.13H88.67L75.32 162.13H269.89Z" fill="#223C6D"/>
<path d="M184.43 107.66V13.24L155.39 6.5L0.25 51.98V58.33L184.43 107.66Z" fill="#1A578F"/>
<path d="M184.43 13.24V107.66L339.57 55.83V49.33L184.43 13.24Z" fill="#165990"/>
<path d="M339.57 49.33L155.39 0L0.25 51.83L184.43 101.16L339.57 49.33Z" fill="#27396F"/>
<path d="M108.66 162.14C126.747 166.807 147.987 169.14 172.38 169.14C196.773 169.14 218.017 166.807 236.11 162.14C238.56 161.49 240.96 160.84 243.31 160.14C253.55 157 261.45 153.49 267 149.54L263.5 134.65C261.547 139.443 253.617 143.957 239.71 148.19C221.163 153.843 198.737 156.66 172.43 156.64C146.123 156.62 123.7 153.803 105.16 148.19C93.6667 144.69 84.7533 140.993 78.42 137.1L77 148.89C82.5 153.09 90.6633 156.84 101.49 160.14C103.84 160.84 106.24 161.49 108.69 162.14H108.66Z" fill="#D75565"/>
<path d="M180.28 48.83C183.28 47.48 184.68 45.83 184.68 43.83C184.68 41.83 183.23 40.23 180.28 38.88C176.932 37.4563 173.316 36.774 169.68 36.88C166.047 36.7799 162.436 37.462 159.09 38.88C156.09 40.23 154.69 41.88 154.69 43.83C154.69 45.78 156.14 47.43 159.09 48.83C162.431 50.2699 166.043 50.9693 169.68 50.88C173.32 50.9701 176.936 50.2707 180.28 48.83Z" fill="#233C6E"/>
<path d="M180.28 46.08C183.28 44.73 184.68 43.08 184.68 41.08C184.68 39.08 183.23 37.48 180.28 36.14C176.932 34.7163 173.316 34.034 169.68 34.14C166.047 34.0348 162.434 34.7171 159.09 36.14C156.09 37.49 154.69 39.14 154.69 41.08C154.69 43.02 156.14 44.68 159.09 46.08C162.431 47.5199 166.043 48.2193 169.68 48.13C173.32 48.2201 176.936 47.5208 180.28 46.08Z" fill="#1A578F"/>
<path d="M59.93 168.83L75.42 72.37L168.43 39.83" stroke="#D75565" stroke-width="6.25" stroke-linecap="round" stroke-linejoin="round"/>
<path d="M36.69 214.36C53.83 196.62 62.41 180.62 62.43 166.36C43.39 169.913 26.33 179.06 11.25 193.8C16.45 206.8 24.94 213.74 36.69 214.39V214.36Z" fill="#D75565"/>
<path d="M20.34 206.87L44.68 185.28M40.68 179.58C31.4184 185.233 22.7188 191.76 14.7 199.07M30.09 212.36C37.9487 205.209 44.8976 197.118 50.78 188.27" stroke="#FFFEFA" stroke-linecap="round" stroke-linejoin="round"/>
</svg>
