<svg xmlns="http://www.w3.org/2000/svg" viewBox="0 0 858.71 658.48"><defs><style>.cls-1{fill:#e5e4e3;}.cls-2{fill:#a5a8a8;opacity:0.2;}.cls-3{fill:#f4e067;}.cls-4{fill:#f5d163;}.cls-5{fill:#dbb752;opacity:0.8;}</style></defs><title>资源 1</title><g id="图层_2" data-name="图层 2"><g id="图层_1-2" data-name="图层 1"><path class="cls-1" d="M388.89,434.06s-68.27,6.71-68.27,54.19,41.84,62.71,71.58,64.5c0,0,.55,89.58,109.56,104.36,0,0,51.21,9.41,97.45-21.05,0,0,64.42,30.46,122.23,8.51s48.45-51.06,48.45-51.06,78.19,21,88.1-55.09-85.35-59.13-85.35-59.13,0-39-53.4-58.23-109,3.59-109,3.59-25.32-74.8-117.82-69.87S388.89,434.06,388.89,434.06Z"/><path class="cls-2" d="M409.24,491.35s11-74.36,103.51-79.28,117.82,69.87,117.82,69.87,55.61-22.84,109-3.58S793,536.58,793,536.58s38.53-6.85,64,7.74c.36-1.91.7-3.85,1-5.9,9.9-76.15-85.35-59.13-85.35-59.13s0-39-53.4-58.23-109,3.59-109,3.59-25.32-74.8-117.82-69.87-103.51,79.28-103.51,79.28-68.27,6.71-68.27,54.19c0,22,9,37,21.54,47C351.13,497.1,409.24,491.35,409.24,491.35Z"/><path class="cls-1" d="M79.76,298.59S48,301.71,48,323.77s19.45,29.15,33.27,30c0,0,.25,41.63,50.92,48.5,0,0,23.79,4.37,45.29-9.78,0,0,29.94,14.15,56.8,3.95s22.52-23.73,22.52-23.73,36.34,9.79,40.94-25.6-39.66-27.48-39.66-27.48,0-18.11-24.82-27.06-50.66,1.66-50.66,1.66-11.78-34.76-54.76-32.47S79.76,298.59,79.76,298.59Z"/><path class="cls-2" d="M89.21,325.21s5.12-34.55,48.11-36.84,54.76,32.47,54.76,32.47,25.84-10.62,50.66-1.66,24.82,27.06,24.82,27.06,17.91-3.19,29.76,3.59c.17-.88.33-1.79.45-2.74,4.61-35.39-39.66-27.48-39.66-27.48s0-18.11-24.82-27.06-50.66,1.66-50.66,1.66-11.78-34.76-54.76-32.47-48.11,36.85-48.11,36.85S48,301.71,48,323.77C48,334,52.2,341,58,345.64,62.21,327.89,89.21,325.21,89.21,325.21Z"/><path class="cls-3" d="M0,394s239.19,146.73,404-40.2S444.21,0,444.21,0s220.1,116.58,143.72,370.85-349.74,208-349.74,208S86.43,551.75,0,394Z"/><path class="cls-4" d="M595.33,195.48a288.06,288.06,0,0,0-26.06-67H550a12.49,12.49,0,0,0,0,25h20.14A14.28,14.28,0,0,0,577,169.57H517.16a13,13,0,0,0,0,25.91Z"/><path class="cls-4" d="M599.5,214.93H536.33a13.9,13.9,0,1,0,0,27.79h37.91a14.17,14.17,0,0,0,10.3,23.91H534.66a12.23,12.23,0,0,0,0,24.46h68.45A304.36,304.36,0,0,0,599.5,214.93Z"/><path class="cls-4" d="M598.35,327.7h-87a12.23,12.23,0,0,0,0,24.46H593Q596.16,339.7,598.35,327.7Z"/><path class="cls-4" d="M551,364.76A9.64,9.64,0,0,0,551,384h32.71c1.47-4.31,2.9-8.69,4.25-13.18.61-2.05,1.16-4.06,1.73-6.09Z"/><path class="cls-4" d="M578.22,398.85H490.56a16.31,16.31,0,0,0,0,32.62h33.36a16.31,16.31,0,1,0,0,32.61h-83a16.31,16.31,0,1,0,0,32.61h75a265.71,265.71,0,0,0,27.34-32.57c-.27,0-.54,0-.81,0h.84A301.36,301.36,0,0,0,578.22,398.85Z"/><circle class="cls-5" cx="75.49" cy="446.47" r="8.34" transform="translate(-11.13 2.02) rotate(-1.43)"/><circle class="cls-5" cx="119.12" cy="499.01" r="7.5" transform="translate(-393.9 500.3) rotate(-76.72)"/><path class="cls-5" d="M195.56,463.15a8.34,8.34,0,1,1-8.34-8.34A8.33,8.33,0,0,1,195.56,463.15Z"/><path class="cls-5" d="M265.61,558.49a12,12,0,1,1-12-12A12,12,0,0,1,265.61,558.49Z"/><path class="cls-5" d="M191.11,518.46a11.95,11.95,0,1,1-12-12A12,12,0,0,1,191.11,518.46Z"/><path class="cls-5" d="M259.49,506.51a15,15,0,1,1-15-15A15,15,0,0,1,259.49,506.51Z"/><path class="cls-5" d="M217.24,536.53a6.12,6.12,0,1,1-6.11-6.11A6.12,6.12,0,0,1,217.24,536.53Z"/><path class="cls-5" d="M319.53,554a7.51,7.51,0,1,1-7.51-7.5A7.51,7.51,0,0,1,319.53,554Z"/><path class="cls-5" d="M331.76,525.69a7.23,7.23,0,1,1-7.23-7.23A7.23,7.23,0,0,1,331.76,525.69Z"/><circle class="cls-5" cx="389.57" cy="553.21" r="6.67"/></g></g></svg>