<svg xmlns="http://www.w3.org/2000/svg" viewBox="0 0 3000 2000"><defs><style>.cls-1{fill:none;}.cls-2{fill:#d4e8ff;}.cls-3{fill:#dce6ff;}.cls-4{fill:#eef7ff;}.cls-5{fill:#7689d6;}.cls-6{fill:#fff;}.cls-7{fill:#677cc1;}.cls-8{fill:#8a9edd;}.cls-9{fill:#fcb4b4;}.cls-10{fill:#a3bcef;}.cls-11{fill:#bfd2f9;}.cls-12{fill:#c92828;}.cls-13{fill:#3a72aa;}.cls-14{fill:#f49f9f;}.cls-15{fill:#f99370;}.cls-16{fill:#23659b;}.cls-17{fill:#e57d61;}.cls-18{fill:#f9f8f3;}.cls-19{fill:#c16256;}.cls-20{fill:#163260;}.cls-21{fill:#234270;}.cls-22{fill:#0b274f;}.cls-23{fill:#1d3f70;}.cls-24{fill:#f9c0c0;}.cls-25{fill:#395b96;}.cls-26{fill:#eb5648;}</style></defs><title>资源 1</title><g id="图层_2" data-name="图层 2"><g id="央铋_1" data-name="央铋 1"><rect id="_26" data-name="26" class="cls-1" width="3000" height="2000"/><g id="_25" data-name="25"><path class="cls-2" d="M619.29,1839.28S317.48,1115.1,543.78,961c151.25-103,298.93,156.3,490.28,36.2,170.36-106.92,61.3-356.75,227.17-477.19,204-148.14,544.78,587.34,784.18,473.25,376.58-179.47,606.8,103.65,345.3,847.32Z"/><path class="cls-3" d="M373.25,1780c-5.28-13.75-10.5-28-15.52-42.36l12.37-3.13c5,14.26,10.18,28.42,15.42,42.08Zm2214-17.76-12.82-1.35c2.13-14.64,4.15-29.38,6-43.82l12.83,1.19C2591.38,1732.71,2589.35,1747.51,2587.22,1762.2ZM343.47,1694.93c-4.52-14.18-8.9-28.63-13-42.94l12.54-2.61c4.1,14.22,8.45,28.58,12.94,42.68Zm2255.06-20.76-12.86-1c1.64-14.7,3.15-29.49,4.5-44l12.87.87C2601.69,1644.58,2600.17,1659.42,2598.53,1674.17ZM318.65,1608.8c-3.73-14.46-7.28-29.07-10.55-43.44l12.68-2.08c3.25,14.28,6.77,28.8,10.48,43.16Zm2288.1-22.92-12.89-.69c1.09-14.69,2-29.51,2.85-44l12.9.51C2608.81,1556.25,2607.84,1571.13,2606.75,1585.88Zm-2307.9-64.16c-2.87-14.63-5.53-29.38-7.9-43.85l12.79-1.51c2.35,14.36,5,29,7.84,43.55Zm2312.73-24.32-12.91-.32c.51-14.75.85-29.59,1-44.09l12.91.12C2612.43,1467.68,2612.08,1482.58,2611.58,1497.4ZM284.47,1433.85c-1.92-14.77-3.6-29.63-5-44.17l12.87-.88c1.37,14.42,3,29.17,4.94,43.84Zm2315.29-24.95c-.16-14.77-.49-29.59-1-44.07l12.9-.32c.5,14.55.83,29.45,1,44.29ZM276.1,1345.4c-.85-14.86-1.42-29.78-1.68-44.35l12.91-.17c.26,14.44.82,29.24,1.67,44Zm2320.6-24.61c-.89-14.75-2-29.54-3.24-44l12.88-.81c1.27,14.52,2.36,29.4,3.26,44.23ZM287.45,1256.88l-12.91-.23c.36-14.9,1-29.83,2.06-44.36l12.89.65C288.49,1227.33,287.8,1242.11,287.45,1256.88Zm2301.53-24c-1.72-14.74-3.68-29.47-5.8-43.76l12.81-1.38c2.14,14.39,4.1,29.22,5.84,44.06Zm-2295.4-63.81-12.84-1.1c1.75-14.84,3.89-29.68,6.35-44.1l12.78,1.58C297.43,1139.75,295.32,1154.42,293.58,1169.11ZM2576,1145.55c-2.69-14.65-5.64-29.24-8.76-43.38l12.68-2c3.16,14.25,6.13,29,8.84,43.72ZM1049,1144c-17.94-2.41-30.91-9.35-48.89-21.35l8.16-8.5c15.75,10.47,27.12,16.76,42.11,18.93Zm44.8-26.12-11.5-5c5.91-9.84,11.13-23.49,15.53-40.59l12.61,2.35C1105.71,1092.91,1100.26,1107.06,1093.76,1117.89Zm-131.58-26.71c-10.29-9.74-21.28-21-33.61-34.27l10.15-6.79c12.15,13.13,23,24.16,33.06,33.72Zm-653.69-9-12.67-2.09c3.34-14.65,7.13-29.26,11.25-43.42l12.53,2.63C315.53,1053.28,311.8,1067.7,308.49,1082.17Zm2248.26-23.09c-3.82-14.5-7.95-28.88-12.26-42.73l12.48-2.8c4.36,14,8.52,28.49,12.38,43.13Zm-1437.66-28.61-12.81-1.41c2-13.1,3.76-27.45,5.44-43.87l12.86.95C1122.89,1002.71,1121.1,1017.21,1119.09,1030.47ZM897,1021.54c-10.49-12-21.38-24.79-30.76-35.78l10.45-6.45c9.36,11,20.23,23.69,30.69,35.7Zm945.26-.9a61.69,61.69,0,0,1-29.32-7.59l6.89-9.29c14.12,7.58,28,7.6,43,1.55l5.56,9.91A69.52,69.52,0,0,1,1842.21,1020.64ZM333.34,997,321,993.77c5.13-14.26,10.76-28.45,16.73-42.16l12.1,3.81C343.94,968.94,338.39,982.92,333.34,997Zm1577.23-10.47-9.49-7.45a385.27,385.27,0,0,0,32.08-34l10.46,6.44A399.49,399.49,0,0,1,1910.57,986.52ZM1776.18,979a326.26,326.26,0,0,1-25.31-39.46l11.67-4.69A318,318,0,0,0,1787,973Zm754.05-4.86c-5.2-14.22-10.75-28.23-16.5-41.62l12.13-3.76c5.82,13.56,11.43,27.73,16.7,42.12ZM835.59,950c-11.81-13.73-21.65-25-31-35.47l10.29-6.63c9.37,10.52,19.26,21.84,31.11,35.61Zm292.87-8.16-12.88-.71c1-12.86,2-27.32,3-44.2l12.9.59C1130.44,914.41,1129.45,928.9,1128.46,941.81Zm-759.28-27-11.81-4.43Q368,889.88,380,870.19l11.45,5.08Q379.63,894.61,369.18,914.78Zm1604,0-10.79-6c9.18-11.86,18.66-24.43,28.25-37.12l10.86,5.93C1991.91,890.29,1982.42,902.86,1973.2,914.78Zm-243.12-16.24c-5.85-12.47-11.89-26.08-18.47-41.6l12.14-3.72c6.54,15.4,12.53,28.9,18.33,41.26Zm764.66-6.84c-6.94-13.75-14.29-27.11-21.83-39.7l11.51-5c7.67,12.8,15.13,26.38,22.18,40.35Zm-1722-12c-11.71-12.36-22.62-23.37-33.34-33.64l9.66-7.28c10.86,10.4,21.89,21.54,33.74,34Zm361.47-26.5-12.89-.55c.87-14.67,1.73-29.35,2.65-44.28l12.9.58C1135.94,823.88,1135.07,838.55,1134.2,853.21Zm895.63-12.73-10.77-6.05c10.78-13.88,20.43-25.89,29.49-36.7l10.52,6.36C2050.1,814.81,2040.53,826.71,2029.83,840.48Zm-1612.74-3.1-10.89-5.91a348.17,348.17,0,0,1,31.1-36.26l9.86,7.08A337,337,0,0,0,417.09,837.38Zm1277.28-22.33c-5.92-14.76-11.73-29.52-16.63-42l12.24-3.48c4.9,12.48,10.7,27.22,16.61,41.94Zm-990.48-.77a431,431,0,0,0-38.56-28.68l7.87-8.7a442.62,442.62,0,0,1,39.7,29.51Zm1744-.47A450.64,450.64,0,0,0,2419,777.73l10.3-6.63a466.22,466.22,0,0,1,29.54,37ZM483.37,772.42l-7.83-8.73a163.61,163.61,0,0,1,47.7-21.43l3.78,10.5A149.88,149.88,0,0,0,483.37,772.42Zm1606.84-3.35-10-6.92a461.51,461.51,0,0,1,35.08-33.41l9.13,7.75A453.76,453.76,0,0,0,2090.21,769.07Zm-950.46-4.32-12.89-.65c1.12-16,2.23-30.45,3.4-44.31l12.87.79C1142,734.39,1140.87,748.84,1139.75,764.75Zm-517.11-2.3a172.68,172.68,0,0,0-47.1-12.93l1.75-10.88a187.53,187.53,0,0,1,51.1,14ZM2385.8,744.7a296.11,296.11,0,0,0-38.25-28.4l7.6-8.88A307.66,307.66,0,0,1,2395,737ZM1661.27,731c-6.43-16.33-11.72-29.65-16.66-41.91l12.21-3.56c5,12.28,10.26,25.63,16.69,42ZM2163,708.47l-7.4-9a195.75,195.75,0,0,1,47.67-20.8l4,10.45A181.81,181.81,0,0,0,2163,708.47ZM2303.91,695a186.93,186.93,0,0,0-48.11-10.55l1.2-10.93a201,201,0,0,1,51.93,11.37ZM1147.26,676.5l-12.86-1c1.61-15.4,3.36-30.28,5.21-44.21l12.83,1.22C1150.6,646.39,1148.86,661.18,1147.26,676.5Zm480.17-29.14c-6.24-14.81-12.12-28.34-18-41.38l12.06-3.91c5.89,13.1,11.8,26.71,18.07,41.59ZM1159,588.77l-12.78-1.57c2.61-15.37,5.48-30.15,8.53-43.94l12.69,2C1164.44,558.92,1161.6,573.55,1159,588.77ZM1590.28,565c-6.94-14.19-13.93-27.76-20.79-40.35l11.72-4.61c6.92,12.72,14,26.43,21,40.75Zm-411.86-62.66-12.53-2.66c4.5-15.33,9.47-29.77,14.76-42.92l12.21,3.56C1187.69,473.16,1182.83,487.3,1178.42,502.33Zm368.14-17.09c-8.49-13.6-17.17-26.36-25.78-37.94l10.91-5.87c8.79,11.81,17.63,24.82,26.27,38.66Zm-334.31-65.15-11.58-4.86a216,216,0,0,1,27.95-38.39l10.14,6.79A205.08,205.08,0,0,0,1212.25,420.09Zm278.94-8.4A293.72,293.72,0,0,0,1456.58,380l8.66-8.14a303.87,303.87,0,0,1,36,33Zm-216.41-56.51-7-9.25a143.32,143.32,0,0,1,50.09-16.08l2,10.85A128.88,128.88,0,0,0,1274.78,355.18Zm141.06,0a175,175,0,0,0-46.57-14l2.27-10.8A188.72,188.72,0,0,1,1422,345.51Z"/><path class="cls-4" d="M2676.82,1532c-107.14-13.5-97.44,189.44-250.16,189.44-139.64,0-214.36-453.41-367.59-361.19-616,370.73-136.72-260.14-550.93-272.47-187.3-5.57-312.11,164.24-358.13,464.9C1083.29,1824.52,928.57,1345.4,769.35,1390c-101.2,28.31-89.61,331.52-229.24,331.52-152.72,0-142.66-170.65-249.81-157.15C175,1578.86,147.91,1843.45,147.91,1843.45H2818.85S2792.18,1546.57,2676.82,1532Z"/><path class="cls-3" d="M2574.16,1745c-98.57-5.76-82.49,46.33-223,46.33-128.46,0-124.93-116.75-210.89-141.56-158.31-45.7-288.82,185.57-350.2,69.5-116.57-308-456.55-462.42-613.39,0-61.38,116.07-204.91-91-350.2-69.5-89.43,13.25-82.44,141.56-210.9,141.56-140.5,0-124.41-52.09-223-46.33-106.13,6.21-137.83,98.42-137.83,98.42H2712S2680.28,1751.24,2574.16,1745Z"/></g><path id="_24" data-name="24" class="cls-5" d="M821.41,966.8A203.83,203.83,0,0,0,635.22,845.7c-4.86,0-9.69.18-14.49.51q-4.82.35-9.57.91t-9.48,1.34a203.62,203.62,0,0,0,33.54,404.46,205.38,205.38,0,0,0,33.53-2.75A203.74,203.74,0,0,0,821.41,966.8Zm-2.87,72.51H741.22c-.8-32.61-5.51-63.84-13.68-91.52A203,203,0,0,0,767,921.47,184.41,184.41,0,0,1,818.54,1039.31Zm-67.18,152.2-1.44,1.17c-.61.49-1.22,1-1.84,1.46l-1.44,1.12-1.91,1.43-1.43,1.06-2,1.43-1.4,1-2.15,1.46-1.27.86c-.84.56-1.69,1.11-2.54,1.65-.31.2-.62.41-.94.6-1.17.75-2.36,1.47-3.55,2.19l-.29.17c-1.08.65-2.18,1.28-3.28,1.91-.37.22-.76.42-1.14.63-.82.47-1.64.92-2.47,1.37l-1.37.72c-.76.41-1.52.81-2.29,1.2l-1.48.74-2.22,1.1-1.54.73-2.21,1-1.56.7-2.23,1-1.58.67-2.25.92-1.59.63c-.76.3-1.54.59-2.31.88-.51.19-1,.39-1.55.57-.8.3-1.61.58-2.42.86l-1.47.51c-.88.3-1.76.59-2.65.87l-1.27.41-.34.11a157.5,157.5,0,0,0,22.2-34c3.24-6.52,6.22-13.41,9-20.62a183.41,183.41,0,0,1,31.09,20.79Zm-172.47,32.6-2.67-.88-1.45-.5-2.45-.87c-.51-.18-1-.38-1.53-.57-.78-.29-1.55-.58-2.33-.89l-1.57-.62-2.26-.92-1.57-.67-2.24-1-1.56-.7-2.22-1-1.52-.72c-.75-.36-1.5-.73-2.24-1.11l-1.46-.73c-.78-.39-1.55-.8-2.32-1.21-.45-.23-.9-.46-1.34-.7l-2.51-1.39-1.11-.62c-1.13-.64-2.26-1.3-3.38-2l-.19-.11c-1.19-.71-2.38-1.44-3.55-2.19l-.9-.57c-.86-.56-1.73-1.11-2.58-1.68-.42-.27-.83-.56-1.24-.84-.73-.49-1.46-1-2.19-1.49l-1.36-1-2-1.46-1.4-1-1.93-1.46c-.48-.36-.95-.73-1.42-1.1-.63-.49-1.26-1-1.88-1.48l-1.41-1.15-.84-.69a183.16,183.16,0,0,1,31.09-20.78c2.73,7.2,5.71,14.09,8.95,20.61a157.5,157.5,0,0,0,22.2,34l-.34-.11Zm-11.27-62.52a184.34,184.34,0,0,1,135.19,0c-15.93,43.1-40.54,71.33-67.6,71.33S583.55,1204.69,567.62,1161.59ZM709,1142.53a204.43,204.43,0,0,0-147.57,0c-7-24.78-11.41-53.17-12.21-83.22h172C720.41,1089.36,716,1117.75,709,1142.53ZM549.22,1039.31c.8-30,5.18-58.43,12.21-83.22a204.29,204.29,0,0,0,147.57,0c7,24.79,11.41,53.18,12.21,83.22Zm-30.15-132.2,1.44-1.16c.61-.49,1.22-1,1.84-1.46l1.45-1.12c.63-.48,1.26-1,1.9-1.43l1.43-1.06c.66-.49,1.33-1,2-1.43l1.39-1,2.15-1.47c.43-.28.85-.57,1.27-.86l2.55-1.65.93-.6c1.17-.74,2.36-1.47,3.55-2.18l.29-.17c1.09-.65,2.18-1.29,3.28-1.91l1.14-.64c.82-.46,1.64-.92,2.47-1.36l1.37-.73c.76-.4,1.52-.8,2.29-1.19l1.48-.74,2.22-1.1,1.54-.73c.74-.34,1.47-.69,2.21-1l1.57-.7,2.22-1,1.58-.67,2.26-.92,1.58-.63,2.31-.88,1.55-.58,2.42-.85,1.47-.51c.88-.3,1.76-.59,2.65-.87l1.27-.42.34-.1a157.66,157.66,0,0,0-22.2,34c-3.24,6.53-6.22,13.42-8.95,20.62a183.16,183.16,0,0,1-31.09-20.78Zm172.43-32.6c.91.29,1.82.58,2.73.89l1.41.49,2.48.88,1.5.56c.79.29,1.58.59,2.36.9l1.54.61,2.3.94,1.54.65,2.26,1,1.53.69c.76.34,1.51.69,2.26,1l1.49.7,2.28,1.13,1.43.71,2.34,1.23,1.32.69c.86.46,1.71.94,2.56,1.41l1,.59c1.16.66,2.32,1.33,3.46,2a.41.41,0,0,1,.11.07q1.8,1.06,3.57,2.19l.85.55c.88.56,1.76,1.12,2.63,1.7l1.22.83c.74.49,1.47,1,2.2,1.5l1.36,1c.68.48,1.36,1,2,1.45l1.41,1,1.92,1.45c.48.36,1,.73,1.43,1.11l1.86,1.46,1.43,1.16.83.69a182.77,182.77,0,0,1-31.09,20.78c-2.73-7.2-5.71-14.09-9-20.62A157.66,157.66,0,0,0,690,874l.35.11ZM702.81,937a184.34,184.34,0,0,1-135.19,0c15.93-43.11,40.54-71.34,67.59-71.34S686.88,893.93,702.81,937ZM503.44,921.47a203,203,0,0,0,39.45,26.31c-8.17,27.69-12.88,58.92-13.68,91.53H451.89A184.43,184.43,0,0,1,503.44,921.47Zm-51.55,137.84h77.32c.8,32.62,5.51,63.85,13.68,91.53a203.42,203.42,0,0,0-39.45,26.31A184.38,184.38,0,0,1,451.89,1059.31ZM767,1177.15a203.42,203.42,0,0,0-39.45-26.31c8.17-27.68,12.88-58.91,13.68-91.53h77.32A184.38,184.38,0,0,1,767,1177.15Z"/><g id="_23" data-name="23"><rect class="cls-6" x="1530.68" y="610.93" width="370.4" height="265.38" rx="22.75" ry="22.75"/><path class="cls-7" d="M1878.33,884h-324.9A30.51,30.51,0,0,1,1523,853.55V633.68a30.51,30.51,0,0,1,30.47-30.47h324.9a30.51,30.51,0,0,1,30.48,30.47V853.55A30.52,30.52,0,0,1,1878.33,884Zm-324.9-265.38a15,15,0,0,0-15,15V853.55a15,15,0,0,0,15,15h324.9a15,15,0,0,0,15-15V633.68a15,15,0,0,0-15-15Z"/><g id="_5" data-name="5"><rect class="cls-6" x="1554.76" y="632.23" width="161.46" height="222.77"/><rect class="cls-8" x="1565.61" y="643.08" width="39.66" height="53.22"/><rect class="cls-9" x="1565.61" y="750.51" width="42.37" height="51.28"/><rect class="cls-9" x="1618.82" y="643.08" width="86.55" height="53.22"/><rect class="cls-10" x="1618.82" y="750.51" width="86.55" height="16.59"/><rect class="cls-11" x="1662.49" y="704.97" width="42.89" height="4.34"/><rect class="cls-11" x="1599.86" y="704.97" width="49.33" height="4.34"/><rect class="cls-11" x="1565.61" y="704.97" width="24.51" height="4.34"/><rect class="cls-11" x="1635.49" y="715.81" width="69.89" height="4.34"/><rect class="cls-11" x="1565.61" y="715.81" width="58.75" height="4.34"/><rect class="cls-11" x="1565.61" y="726.65" width="139.77" height="4.34"/><rect class="cls-11" x="1675.74" y="737.5" width="29.63" height="4.34"/><rect class="cls-11" x="1616.5" y="737.5" width="47.14" height="4.34"/><rect class="cls-11" x="1565.61" y="737.5" width="34.26" height="4.34"/><rect class="cls-11" x="1659.15" y="808.31" width="46.23" height="4.34"/><rect class="cls-11" x="1598.9" y="808.31" width="45.47" height="4.34"/><rect class="cls-11" x="1565.61" y="808.31" width="22.64" height="4.34"/><rect class="cls-11" x="1631.65" y="819.15" width="73.73" height="4.34"/><rect class="cls-11" x="1565.61" y="819.15" width="55.5" height="4.34"/><rect class="cls-11" x="1666.09" y="829.99" width="39.29" height="4.34"/><rect class="cls-11" x="1606.52" y="829.99" width="46.59" height="4.34"/><rect class="cls-11" x="1565.61" y="829.99" width="29.38" height="4.34"/><rect class="cls-11" x="1638.83" y="840.84" width="66.55" height="4.34"/><rect class="cls-11" x="1565.61" y="840.84" width="60.05" height="4.34"/><rect class="cls-11" x="1649.78" y="775.78" width="55.6" height="4.34"/><rect class="cls-11" x="1618.82" y="775.78" width="21.34" height="4.34"/><rect class="cls-11" x="1679.39" y="786.62" width="25.98" height="4.34"/><rect class="cls-11" x="1618.82" y="786.62" width="49.16" height="4.34"/><rect class="cls-11" x="1618.82" y="797.46" width="86.55" height="4.34"/></g><g id="_3" data-name="3"><rect class="cls-6" x="1715.54" y="632.23" width="161.46" height="222.77" transform="translate(3592.54 1487.23) rotate(180)"/><rect class="cls-10" x="1726.38" y="643.08" width="43.18" height="48.66" transform="translate(3495.95 1334.81) rotate(180)"/><rect class="cls-10" x="1726.38" y="747.8" width="86.55" height="16.59" transform="translate(3539.32 1512.19) rotate(180)"/><rect class="cls-9" x="1726.38" y="775.23" width="86.55" height="23.84" transform="translate(3539.32 1574.31) rotate(180)"/><rect class="cls-11" x="1726.39" y="702.26" width="72.92" height="4.34"/><rect class="cls-11" x="1813.83" y="702.26" width="52.33" height="4.34"/><rect class="cls-11" x="1782.49" y="686.26" width="36.64" height="4.34"/><rect class="cls-11" x="1827.11" y="686.26" width="39.04" height="4.34"/><rect class="cls-11" x="1782.49" y="675.42" width="24.89" height="4.34"/><rect class="cls-11" x="1813.83" y="675.42" width="21.8" height="4.34"/><rect class="cls-11" x="1847.05" y="675.42" width="19.11" height="4.34"/><rect class="cls-11" x="1782.49" y="664.57" width="48.57" height="4.34"/><rect class="cls-11" x="1841.67" y="664.57" width="24.48" height="4.34"/><rect class="cls-11" x="1782.49" y="653.73" width="15.55" height="4.34"/><rect class="cls-11" x="1808.15" y="653.73" width="58" height="4.34"/><rect class="cls-11" x="1782.49" y="642.89" width="40.26" height="4.34"/><rect class="cls-11" x="1829.19" y="642.89" width="36.96" height="4.34"/><rect class="cls-11" x="1726.39" y="713.1" width="19.25" height="4.34"/><rect class="cls-11" x="1759.3" y="713.1" width="61.19" height="4.34"/><rect class="cls-11" x="1834.29" y="713.1" width="31.86" height="4.34"/><rect class="cls-11" x="1726.39" y="723.94" width="81.77" height="4.34"/><rect class="cls-11" x="1823.78" y="723.94" width="42.37" height="4.34"/><rect class="cls-11" x="1726.39" y="734.79" width="40.1" height="4.34"/><rect class="cls-11" x="1776.95" y="734.79" width="89.21" height="4.34"/><rect class="cls-11" x="1726.39" y="805.6" width="37.81" height="4.34"/><rect class="cls-11" x="1771.67" y="805.6" width="32.81" height="4.34"/><rect class="cls-11" x="1811.33" y="805.6" width="54.82" height="4.34"/><rect class="cls-11" x="1726.39" y="816.44" width="105.5" height="4.34"/><rect class="cls-11" x="1844.97" y="816.44" width="21.19" height="4.34"/><rect class="cls-11" x="1726.39" y="827.28" width="26.81" height="4.34"/><rect class="cls-11" x="1766.48" y="827.28" width="56.48" height="4.34"/><rect class="cls-11" x="1834.29" y="827.28" width="31.86" height="4.34"/><rect class="cls-11" x="1726.39" y="838.13" width="66.68" height="4.34"/><rect class="cls-11" x="1799.3" y="838.13" width="66.85" height="4.34"/><rect class="cls-11" x="1823.78" y="747.8" width="42.37" height="4.34"/><rect class="cls-11" x="1823.78" y="794.97" width="13.09" height="4.34"/><rect class="cls-11" x="1844.97" y="794.97" width="21.19" height="4.34"/><rect class="cls-11" x="1823.78" y="783.18" width="42.37" height="4.34"/><rect class="cls-11" x="1823.78" y="771.38" width="16.21" height="4.34"/><rect class="cls-11" x="1847.46" y="771.38" width="18.69" height="4.34"/><rect class="cls-11" x="1823.78" y="759.59" width="28.74" height="4.34"/><rect class="cls-11" x="1857.43" y="759.59" width="8.72" height="4.34"/></g></g><g id="_22" data-name="22"><path class="cls-12" d="M1268.71,702.9s99.3-23.49,155.08,95c36.51,77.54,3.76,74.06,62.58,158.33,70.21,100.59-54.17,165.09-103.76,177.67-65,16.5-20.89,112.12-149.8,106.21S818.36,794,1268.71,702.9Z"/><path class="cls-13" d="M1331.36,1146.23c3.39,8,153.8,452.33,156,457.53,63.35,81.31,138.66,69.53,138.66,69.53C1763.87,1444.18,1523.66,1146.23,1331.36,1146.23Z"/><path class="cls-9" d="M1479,1620.33c.71,30.57,28.29,181.59,4.42,203.12,0,0-572.61,34.39-575.05,0-16.13-365.52,183.69-549.88,294.44-685.24,0,0,105.59,6.61,105.59,6.67l23,1.35c52.8,72.71,136.1,212.06,161,277.7C1517.45,1497.72,1477.16,1542,1479,1620.33Z"/><path class="cls-14" d="M1331.36,1146.23s-1,48.42-39.32,60.67c-33.87,10.84-79,2.63-107.29-47.15,6.5-7.6,12.54-14.77,18-21.54,0,0,105.59,6.61,105.59,6.67Z"/><path class="cls-14" d="M1255.05,1275.47c-26.82,0-55.71-2.79-86.22-8.34-67.32-12.26-120-34.07-120.56-34.29l3.46-8.31c.52.22,52.48,21.71,118.89,33.77,60.88,11.06,146.74,16.26,210-21.8l4.64,7.71c-29.11,17.51-65,27.78-106.73,30.51Q1267.09,1275.47,1255.05,1275.47Z"/><path class="cls-14" d="M1256.36,1355a520.69,520.69,0,0,1-82.19-6.78c-66.61-10.65-114.77-30.46-115.25-30.66l3.45-8.31c.47.19,47.83,19.65,113.44,30.12,60.32,9.62,148.87,13.4,228.23-23.24l3.77,8.17c-36,16.64-76.81,26.62-121.23,29.68Q1271.73,1355,1256.36,1355Z"/><path class="cls-14" d="M1255.41,1434.11a595.31,595.31,0,0,1-68.87-4.12c-73-8.5-126.87-27.52-127.4-27.71l3-8.48c.53.19,53.63,18.91,125.64,27.28,66.2,7.69,162.41,8,244.8-34.46l4.12,8c-37.35,19.23-80.47,31.58-128.18,36.72A495.59,495.59,0,0,1,1255.41,1434.11Z"/><path class="cls-14" d="M1261.39,1520a586.56,586.56,0,0,1-61.68-3.37c-78.63-8.3-139.93-29.44-140.54-29.65l3-8.5c.6.21,61.08,21,138.72,29.22,71.28,7.51,172.06,5.57,247.37-46.26l5.11,7.42c-34.35,23.63-76.52,39.27-125.33,46.48A457,457,0,0,1,1261.39,1520Z"/><path class="cls-14" d="M1271.53,1604.66a589.2,589.2,0,0,1-61.68-3.36c-78.63-8.3-139.93-29.44-140.54-29.65l3-8.5c.6.21,61.08,21,138.72,29.22,71.28,7.5,172.06,5.57,247.38-46.26l5.1,7.41c-34.35,23.64-76.51,39.28-125.32,46.49A457.31,457.31,0,0,1,1271.53,1604.66Z"/><path class="cls-14" d="M1278.76,1689.34a589.2,589.2,0,0,1-61.68-3.36c-78.63-8.31-139.93-29.44-140.54-29.65l3-8.5c.6.21,61.08,21,138.72,29.22,71.28,7.5,172.06,5.57,247.38-46.26l5.1,7.41c-34.35,23.64-76.51,39.28-125.32,46.49A457.31,457.31,0,0,1,1278.76,1689.34Z"/><path class="cls-14" d="M1287,1774a586.75,586.75,0,0,1-61.69-3.37c-78.62-8.3-139.93-29.43-140.54-29.65l3-8.5c.61.21,61.09,21,138.72,29.22,71.29,7.51,172.07,5.57,247.38-46.25l5.1,7.41c-34.34,23.64-76.51,39.28-125.32,46.48A455.65,455.65,0,0,1,1287,1774Z"/><path class="cls-13" d="M1331.36,1146.23s64.9,158.48,94.36,255.22c61.62,202.31,18,437.28,18,437.28h177.7s-64.88-437.28-156.52-549.11S1331.36,1146.23,1331.36,1146.23Z"/><path class="cls-13" d="M1202.77,1138.21s-65.37,217.29-62.07,367.41,28.8,344.68,28.8,344.68l-177.71-6.85S913.66,1525,981.06,1384.34,1202.77,1138.21,1202.77,1138.21Z"/><path class="cls-15" d="M1188.7,1727.24l27.13,2.42-27.13,65.57-14-.09S1153.78,1758.39,1188.7,1727.24Z"/><path class="cls-16" d="M1546.32,1487.18a5,5,0,0,1-4.86-3.86c-18-77-46.87-133.33-47.16-133.89a5,5,0,0,1,8.89-4.59c.29.57,29.68,57.91,48,136.2a5,5,0,0,1-3.73,6A4.92,4.92,0,0,1,1546.32,1487.18Z"/><path class="cls-13" d="M1093.29,1822.24c12.87-3.25,69.3-23.48,81.4-27.1,0,0-13-36,14-67.9-419.67-131.11,14.07-589,14.07-589C764,1124.69,405.06,1926.9,1093.29,1822.24Z"/><path class="cls-15" d="M1390.09,1795.13s-33.8-102.37-174.26-65.47l-27.13,65.57Z"/><path class="cls-15" d="M1308.65,1096.44l-.3,48.41h0c-10.31,71.75-93.92,35.93-105.58-6.64l7.13-73.07Z"/><path class="cls-17" d="M1308.54,1114.13c-22.31.26-66.17-1.26-100.93-25.51,0,0,6.88-68.36,7.5-87.17,1-33.8-.51-47.91,22.28-68.29,30.3-25.79,81.75-5.87,85.88,34.4C1325.44,986.82,1306.68,1047.07,1308.54,1114.13Z"/><path class="cls-15" d="M1382.22,1073c-178.26,100-282.5-123.16-183.34-257.4,33.75-47.74,106.25-66.66,154.26-30.07,33.16,26.85,39.83,67.28,48.63,110.17,2.94,11.3,9.86,26.62,17.42,37.61C1448,976.49,1437,1033.22,1382.22,1073Z"/><path class="cls-17" d="M1279.15,859.41c-81.25,9.92-84.63,73.4-84.63,73.4l-24-38.14,87-103.88,70.1-18.94a84,84,0,0,1,39.34,27.41S1360.39,849.48,1279.15,859.41Z"/><path class="cls-18" d="M1365.44,1009.7l-52.25-41C1301,1002.94,1333.37,1032.6,1365.44,1009.7Z"/><path class="cls-19" d="M1336.74,922.58c5.55-6.9-5.42-15.45-10.76-8.39C1320.43,921.09,1331.4,929.64,1336.74,922.58Z"/><path class="cls-19" d="M1394.9,924.09c5.55-6.9-5.41-15.45-10.76-8.39C1378.59,922.6,1389.56,931.15,1394.9,924.09Z"/><path class="cls-19" d="M1365.44,1012.28c-2,.48-52.24-40.93-53.84-41.5a2.59,2.59,0,0,1-.44-3.63c1-6.33,54.36,40.92,55.87,40.51A2.6,2.6,0,0,1,1365.44,1012.28Z"/><path class="cls-19" d="M1368.79,978.82c-4.78-.5-15.83-.39-14.79-6.64a2.59,2.59,0,0,1,3.51-1c8,4.69,29.79,2.8,21-5.2-12.81-9.91-23.43-53.48-12.26-41.64,0,.29,4.24,28.34,15.55,37.65C1393.44,973.72,1379.77,978.5,1368.79,978.82Z"/><path class="cls-12" d="M1353.13,785.57c1.89-71.87-211.53-187.81-327.64,71.54-59.23,132.32-160.34,139.32-74.55,239.33,48,56-49,84.71-9.09,128.07s102.89,17.55,90,100.38,35.54,111.76,93.4,118.13,154-134.66,98.63-200.2,8.13-97.54-9.68-173.66-51.23-95.79-51.23-95.79l25.72-62.87C1206.14,828.48,1343.12,862.49,1353.13,785.57Z"/><path class="cls-16" d="M1149.07,1807.76l25.62-12.62s-13-36,14-67.9l-34.25-12.16S1120.42,1767,1149.07,1807.76Z"/><path class="cls-15" d="M1142.07,963.09c12,53.08,76.48,38.71,65-14.43C1195,895.59,1130.58,910,1142.07,963.09Z"/><path class="cls-19" d="M1159.26,973.9a2.68,2.68,0,0,0,2.24-3.46c-10.33-28.1,1.87-40.21,21-32.52,3.2,1.29,5.17-3.81,1.9-5-22.42-8.94-40.39,5.46-28,39.12A2.67,2.67,0,0,0,1159.26,973.9Z"/><path class="cls-19" d="M1184.12,969.93c7.35-1.71-7.75-25.83-28.29-27.43a2.67,2.67,0,1,0-.31,5.34C1176.49,949.81,1178.68,969.61,1184.12,969.93Z"/><ellipse class="cls-12" cx="1238.83" cy="651.53" rx="88.94" ry="106.26" transform="translate(-101.61 248.54) rotate(-11.01)"/><path class="cls-16" d="M1159.79,1726.64a5,5,0,0,1-1.65-.28c-35.9-12.51-70.72-32.78-98.05-57.08-31.73-28.22-51.14-60-56.12-92-10.54-67.5,23.09-154.14,24.53-157.79a5,5,0,1,1,9.3,3.66c-.34.87-34.07,87.79-23.95,152.59,10.18,65.18,83.64,118.85,147.58,141.13a5,5,0,0,1-1.64,9.72Z"/><path class="cls-16" d="M1094.93,1821.09a5,5,0,0,1-.54-10c.41,0,40.91-4.62,59.75-17.07a5,5,0,0,1,5.51,8.34c-20.85,13.78-62.41,18.48-64.17,18.67A5.07,5.07,0,0,1,1094.93,1821.09Z"/><path class="cls-17" d="M1374.69,1778.51a3.49,3.49,0,0,1-2-.62c-42.32-29.28-70.72-30-71-30a3.5,3.5,0,0,1,0-7h0c1.23,0,30.61.65,74.9,31.29a3.49,3.49,0,0,1-2,6.37Z"/><path class="cls-17" d="M1371.44,1794.83a3.54,3.54,0,0,1-1.41-.3c-34.75-15.39-73.78-18.58-74.17-18.61a3.5,3.5,0,1,1,.54-7c1.64.13,40.58,3.29,76.46,19.19a3.5,3.5,0,0,1-1.42,6.7Z"/><circle class="cls-16" cx="1405.93" cy="1263" r="13.17" transform="translate(-65.97 2448.47) rotate(-80.78)"/><circle class="cls-16" cx="1450.77" cy="1373.49" r="13.17" transform="translate(-546.28 1428.14) rotate(-45)"/><circle class="cls-16" cx="1476.38" cy="1482.18" r="13.17" transform="translate(-305.35 2578.53) rotate(-76.72)"/><circle class="cls-16" cx="1103.62" cy="1515.49" r="13.17" transform="translate(-568.52 2363.21) rotate(-80.82)"/><circle class="cls-16" cx="1112.74" cy="1619.11" r="13.17" transform="translate(-719.66 2327.64) rotate(-76.64)"/><path class="cls-19" d="M1308.65,904.56a2,2,0,0,1-1-3.74c.83-.47,20.44-11.35,37.09-5.82a2,2,0,0,1-1.26,3.8c-15-5-33.68,5.4-33.87,5.5A1.92,1.92,0,0,1,1308.65,904.56Z"/><path class="cls-19" d="M1399.61,902.86a2,2,0,0,1-.93-.24c-10-5.31-22.19-1.74-22.31-1.7a2,2,0,1,1-1.16-3.83c.56-.17,13.85-4.1,25.35,2a2,2,0,0,1-1,3.77Z"/></g><g id="_21" data-name="21"><rect class="cls-6" x="2420.08" y="1002.91" width="445.11" height="318.9" rx="27.34" ry="27.34"/><path class="cls-7" d="M2837.85,1331.09H2447.42a36.66,36.66,0,0,1-36.62-36.62V1030.25a36.66,36.66,0,0,1,36.62-36.62h390.43a36.66,36.66,0,0,1,36.62,36.62v264.22A36.66,36.66,0,0,1,2837.85,1331.09Zm-390.43-318.9a18.08,18.08,0,0,0-18.06,18.06v264.22a18.08,18.08,0,0,0,18.06,18.06h390.43a18.08,18.08,0,0,0,18.06-18.06V1030.25a18.08,18.08,0,0,0-18.06-18.06Z"/><g id="_5-2" data-name="5"><rect class="cls-6" x="2449.02" y="1028.51" width="194.02" height="267.7"/><rect class="cls-8" x="2462.05" y="1041.54" width="47.66" height="63.95"/><rect class="cls-9" x="2462.05" y="1170.65" width="50.92" height="61.62"/><rect class="cls-9" x="2526" y="1041.54" width="104.01" height="63.95"/><rect class="cls-10" x="2526" y="1170.65" width="104.01" height="19.94"/><rect class="cls-11" x="2578.48" y="1115.92" width="51.54" height="5.21"/><rect class="cls-11" x="2503.22" y="1115.92" width="59.27" height="5.21"/><rect class="cls-11" x="2462.05" y="1115.92" width="29.46" height="5.21"/><rect class="cls-11" x="2546.03" y="1128.95" width="83.98" height="5.21"/><rect class="cls-11" x="2462.05" y="1128.95" width="70.6" height="5.21"/><rect class="cls-11" x="2462.05" y="1141.98" width="167.96" height="5.21"/><rect class="cls-11" x="2594.41" y="1155.01" width="35.61" height="5.21"/><rect class="cls-11" x="2523.21" y="1155.01" width="56.65" height="5.21"/><rect class="cls-11" x="2462.05" y="1155.01" width="41.17" height="5.21"/><rect class="cls-11" x="2574.46" y="1240.1" width="55.55" height="5.21"/><rect class="cls-11" x="2502.07" y="1240.1" width="54.64" height="5.21"/><rect class="cls-11" x="2462.05" y="1240.1" width="27.21" height="5.21"/><rect class="cls-11" x="2541.42" y="1253.13" width="88.6" height="5.21"/><rect class="cls-11" x="2462.05" y="1253.13" width="66.7" height="5.21"/><rect class="cls-11" x="2582.8" y="1266.16" width="47.21" height="5.21"/><rect class="cls-11" x="2511.22" y="1266.16" width="55.99" height="5.21"/><rect class="cls-11" x="2462.05" y="1266.16" width="35.3" height="5.21"/><rect class="cls-11" x="2550.04" y="1279.19" width="79.97" height="5.21"/><rect class="cls-11" x="2462.05" y="1279.19" width="72.16" height="5.21"/><rect class="cls-11" x="2563.2" y="1201.01" width="66.81" height="5.21"/><rect class="cls-11" x="2526" y="1201.01" width="25.64" height="5.21"/><rect class="cls-11" x="2598.79" y="1214.04" width="31.22" height="5.21"/><rect class="cls-11" x="2526" y="1214.04" width="59.08" height="5.21"/><rect class="cls-11" x="2526" y="1227.07" width="104.01" height="5.21"/></g><g id="_3-2" data-name="3"><rect class="cls-6" x="2642.23" y="1028.51" width="194.02" height="267.7" transform="translate(5478.48 2324.72) rotate(180)"/><rect class="cls-10" x="2655.26" y="1041.54" width="51.89" height="58.47" transform="translate(5362.41 2141.55) rotate(180)"/><rect class="cls-10" x="2655.26" y="1167.39" width="104.01" height="19.94" transform="translate(5414.53 2354.71) rotate(180)"/><rect class="cls-9" x="2655.26" y="1200.35" width="104.01" height="28.65" transform="translate(5414.53 2429.36) rotate(180)"/><rect class="cls-11" x="2655.26" y="1112.66" width="87.62" height="5.21"/><rect class="cls-11" x="2760.34" y="1112.66" width="62.88" height="5.21"/><rect class="cls-11" x="2722.69" y="1093.44" width="44.03" height="5.21"/><rect class="cls-11" x="2776.31" y="1093.44" width="46.91" height="5.21"/><rect class="cls-11" x="2722.69" y="1080.41" width="29.92" height="5.21"/><rect class="cls-11" x="2760.34" y="1080.41" width="26.2" height="5.21"/><rect class="cls-11" x="2800.26" y="1080.41" width="22.96" height="5.21"/><rect class="cls-11" x="2722.69" y="1067.38" width="58.36" height="5.21"/><rect class="cls-11" x="2793.8" y="1067.38" width="29.42" height="5.21"/><rect class="cls-11" x="2722.69" y="1054.35" width="18.69" height="5.21"/><rect class="cls-11" x="2753.52" y="1054.35" width="69.7" height="5.21"/><rect class="cls-11" x="2722.69" y="1041.31" width="48.38" height="5.21"/><rect class="cls-11" x="2778.8" y="1041.31" width="44.42" height="5.21"/><rect class="cls-11" x="2655.26" y="1125.69" width="23.13" height="5.21"/><rect class="cls-11" x="2694.82" y="1125.69" width="73.53" height="5.21"/><rect class="cls-11" x="2784.93" y="1125.69" width="38.29" height="5.21"/><rect class="cls-11" x="2655.26" y="1138.72" width="98.26" height="5.21"/><rect class="cls-11" x="2772.3" y="1138.72" width="50.92" height="5.21"/><rect class="cls-11" x="2655.26" y="1151.75" width="48.18" height="5.21"/><rect class="cls-11" x="2716.02" y="1151.75" width="107.2" height="5.21"/><rect class="cls-11" x="2655.26" y="1236.84" width="45.44" height="5.21"/><rect class="cls-11" x="2709.68" y="1236.84" width="39.43" height="5.21"/><rect class="cls-11" x="2757.34" y="1236.84" width="65.88" height="5.21"/><rect class="cls-11" x="2655.26" y="1249.87" width="126.78" height="5.21"/><rect class="cls-11" x="2797.76" y="1249.87" width="25.46" height="5.21"/><rect class="cls-11" x="2655.26" y="1262.9" width="32.21" height="5.21"/><rect class="cls-11" x="2703.45" y="1262.9" width="67.87" height="5.21"/><rect class="cls-11" x="2784.93" y="1262.9" width="38.29" height="5.21"/><rect class="cls-11" x="2655.26" y="1275.93" width="80.12" height="5.21"/><rect class="cls-11" x="2742.89" y="1275.93" width="80.34" height="5.21"/><rect class="cls-11" x="2772.3" y="1167.39" width="50.92" height="5.21"/><rect class="cls-11" x="2772.3" y="1224.07" width="15.73" height="5.21"/><rect class="cls-11" x="2797.76" y="1224.07" width="25.46" height="5.21"/><rect class="cls-11" x="2772.3" y="1209.9" width="50.92" height="5.21"/><rect class="cls-11" x="2772.3" y="1195.73" width="19.48" height="5.21"/><rect class="cls-11" x="2800.76" y="1195.73" width="22.46" height="5.21"/><rect class="cls-11" x="2772.3" y="1181.56" width="34.53" height="5.21"/><rect class="cls-11" x="2812.74" y="1181.56" width="10.48" height="5.21"/></g></g><g id="_20" data-name="20"><polygon class="cls-20" points="1988.95 1797.19 1425.72 1797.19 1537.86 1384.34 2097.68 1384.34 1988.95 1797.19"/><rect class="cls-21" x="1425.72" y="1795.14" width="563.22" height="28.04"/><polygon class="cls-22" points="1546.33 1384.34 1526.17 1384.34 1416.34 1795.14 1149.06 1795.14 1149.06 1823.18 1435.1 1823.18 1435.1 1798.1 1546.33 1384.34"/></g><g id="_19" data-name="19"><polygon class="cls-23" points="808.22 1821.27 662.85 1821.27 635.22 1583.22 835.86 1583.22 808.22 1821.27"/><path class="cls-14" d="M836.93,1619.06H634.14a14.16,14.16,0,0,1-12.65-20.52l8.57-17.08a18.62,18.62,0,0,1,16.64-10.26H824.38A18.62,18.62,0,0,1,841,1581.46l8.57,17.08A14.16,14.16,0,0,1,836.93,1619.06Z"/><path class="cls-24" d="M829,1573.75H642.07l7.58-10a34.93,34.93,0,0,1,27.88-13.88h116a34.93,34.93,0,0,1,27.88,13.88Z"/><path class="cls-14" d="M814.36,1767.6H656a6.33,6.33,0,0,1-6.28-5.6l-9.87-85.52a6.31,6.31,0,0,1,6.28-7H824.23a6.32,6.32,0,0,1,6.28,7L820.64,1762A6.33,6.33,0,0,1,814.36,1767.6Z"/></g><g id="_18" data-name="18"><rect class="cls-25" x="108.25" y="1821.27" width="2750.26" height="44.35" rx="22.18" ry="22.18"/></g><g id="_17" data-name="17"><path class="cls-6" d="M2218.5,786.17H1761.81c-134,2.68-79.28,197.35-89.86,280.25a89.87,89.87,0,0,0,80,89.31c.33,20.74,1.94,41.19.68,49.68-.35,17.56,15.13,32.91,32.59,32.59,12.35,4.62,92.14-60.9,120.39-81.72H2218.5a89.86,89.86,0,0,0,89.86-89.86V876A89.86,89.86,0,0,0,2218.5,786.17Z"/><path class="cls-5" d="M2275.77,876v190.41a57.26,57.26,0,0,1-57.26,57.25h-456.7a57.26,57.26,0,0,1-57.26-57.25V876a57.27,57.27,0,0,1,57.26-57.26h456.7A57.28,57.28,0,0,1,2275.77,876Z"/><path class="cls-7" d="M1704.55,1066.43a57.26,57.26,0,0,0,57.26,57.25h23.37v81.73l110.35-81.73h323a57.26,57.26,0,0,0,57.26-57.25V876C2060.16,1091.64,1704.55,1066.43,1704.55,1066.43Z"/><path class="cls-6" d="M2066.59,911.84H1762.41a15.86,15.86,0,0,1,0-31.72h304.18C2087.23,880.2,2087.41,911.75,2066.59,911.84Z"/><path class="cls-6" d="M1885.12,987.08H1762.41c-20.7-.08-20.77-31.62,0-31.71h122.71C1905.82,955.45,1905.88,987,1885.12,987.08Z"/><path class="cls-6" d="M2217.91,987.08h-259a15.86,15.86,0,1,1,0-31.71h259C2238.57,955.44,2238.71,987,2217.91,987.08Z"/><path class="cls-6" d="M2013.26,1062.32H1762.41c-20.66-.07-20.8-31.62,0-31.71h250.85C2033.92,1030.69,2034.06,1062.23,2013.26,1062.32Z"/><path class="cls-8" d="M2191.8,818.76c-385,0-474.47,64.21-487.25,75.53-4.75-38,15.75-75.23,57.26-75.53Z"/></g><g id="_16" data-name="16"><path class="cls-6" d="M2152,1471.4l-126.54-.5,51.69,90.35a13,13,0,0,0,22.46.09Z"/><path class="cls-6" d="M2019.5,1287.61h139a44.72,44.72,0,0,1,44.72,44.72v139a44.71,44.71,0,0,1-44.71,44.71h-139a44.71,44.71,0,0,1-44.71-44.71v-139a44.72,44.72,0,0,1,44.72-44.72Z" transform="translate(679 3485.29) rotate(-89.78)"/><path class="cls-5" d="M1991.08,1331.94l-.54,139a28.69,28.69,0,0,0,28.58,28.8l139,.55a28.7,28.7,0,0,0,28.8-28.58l.55-139a28.7,28.7,0,0,0-28.58-28.81l-139-.54A28.69,28.69,0,0,0,1991.08,1331.94Z"/><path class="cls-6" d="M2030.93,1359.23c18.68-18.22,43.69-9.92,58.2,8.9,15.29-18.93,39-26.85,58.26-8.44,18.21,18.66,9.92,43.68-8.89,58.2l-49.76,49.35-49.37-49.74C2020.41,1402,2012.51,1378.68,2030.93,1359.23Z"/><path class="cls-7" d="M2019.12,1499.72l139.31.55A28.37,28.37,0,0,0,2186.9,1472l.28-69.81S2137.92,1500.19,2019.12,1499.72Z"/><path class="cls-8" d="M2158.87,1303.9l-139.09-.54a28.58,28.58,0,0,0-28.7,28.46l-.27,69.61S2040.07,1303.44,2158.87,1303.9Z"/><polygon class="cls-7" points="2088.42 1548.69 2060.49 1499.88 2116.73 1500.1 2088.42 1548.69"/></g><g id="_15" data-name="15"><path class="cls-6" d="M2847.7,947.62l-108.26-.43,44.22,77.3a11.1,11.1,0,0,0,19.22.08Z"/><rect class="cls-6" x="2696.09" y="790.37" width="195.42" height="195.42" rx="38.26" ry="38.26" transform="translate(1894.78 3678.38) rotate(-89.78)"/><rect class="cls-5" x="2709.8" y="804.08" width="168" height="168" rx="24.55" ry="24.55" transform="translate(1894.78 3678.38) rotate(-89.78)"/><path class="cls-6" d="M2744.13,851.65c15.68-15.57,37.64-8.41,49.79,7.61,12.74-16.08,33.77-22.94,49.84-7.22,15.58,16,8.5,37.38-7.6,49.79l-42.57,42.23-42.24-42.56C2735.27,888.76,2728.4,867.74,2744.13,851.65Z"/><path class="cls-7" d="M2734,971.85l119.19.47a24.27,24.27,0,0,0,24.36-24.18l.24-59.73S2835.66,972.25,2734,971.85Z"/><path class="cls-8" d="M2853.59,804.31l-119-.46A24.44,24.44,0,0,0,2710,828.2l-.24,59.55S2752,803.91,2853.59,804.31Z"/><polygon class="cls-7" points="2793.31 1013.75 2769.42 971.99 2817.53 972.18 2793.31 1013.75"/></g><g id="_14" data-name="14"><rect class="cls-5" x="2279.38" y="1468" width="385.18" height="285.85"/><polygon class="cls-7" points="2664.56 1468 2658.98 1468 2471.97 1643.85 2284.97 1468 2279.38 1468 2279.38 1473.24 2413.26 1599.12 2279.38 1748.15 2279.38 1753.85 2284.52 1753.85 2418.82 1604.35 2471.97 1654.33 2525.12 1604.35 2659.43 1753.85 2664.56 1753.85 2664.56 1748.15 2530.69 1599.12 2664.56 1473.24 2664.56 1468"/><circle class="cls-26" cx="2664.56" cy="1468" r="50.09" transform="translate(-358.95 1131.43) rotate(-22.5)"/></g><g id="_13" data-name="13"><path class="cls-8" d="M2539,216.38a242.83,242.83,0,0,1,136.6,218.52v1.2L2433,434.9Z"/><path class="cls-5" d="M2642.64,456.74c0,1.7,0,3.39-.08,5.08-2.7,131.79-110.18,237.81-242.46,237.81A242.72,242.72,0,0,1,2157.83,468c-.13-1.77-.17-3.51-.21-5.28,0-2-.09-4-.09-6a242.88,242.88,0,0,1,13.33-79.57c32.9-95.06,123.11-163.29,229.24-163.29A241,241,0,0,1,2505.57,238L2400.05,455.53Z"/><path class="cls-7" d="M2642.64,456.74c0,1.7,0,3.39-.08,5.08-2.7,131.79-110.18,237.81-242.46,237.81a241.5,241.5,0,0,1-170.7-70.36l170.65-173.74Z"/></g><g id="_12" data-name="12"><rect class="cls-6" x="245.79" y="650.18" width="517.79" height="129.88" rx="26.07" ry="26.07"/><path class="cls-7" d="M737.51,787.47H271.86A33.51,33.51,0,0,1,238.39,754V676.25a33.51,33.51,0,0,1,33.47-33.47H737.51A33.51,33.51,0,0,1,771,676.25V754A33.51,33.51,0,0,1,737.51,787.47ZM271.86,657.59a18.69,18.69,0,0,0-18.67,18.66V754a18.69,18.69,0,0,0,18.67,18.66H737.51A18.69,18.69,0,0,0,756.18,754V676.25a18.69,18.69,0,0,0-18.67-18.66Z"/><ellipse class="cls-7" cx="379.61" cy="690" rx="20.77" ry="20.54"/><path class="cls-7" d="M379.61,714h0a31,31,0,0,1,31,31v15.82a0,0,0,0,1,0,0h-62a0,0,0,0,1,0,0V745a31,31,0,0,1,31-31Z"/><path class="cls-7" d="M312.63,736.09a4.51,4.51,0,0,1-4.5-4.5V698.66a4.5,4.5,0,0,1,9,0v32.93A4.5,4.5,0,0,1,312.63,736.09Z"/><path class="cls-7" d="M329.09,719.62H296.17a4.5,4.5,0,1,1,0-9h32.92a4.5,4.5,0,1,1,0,9Z"/><path class="cls-5" d="M490.84,685.87H478.49a1.49,1.49,0,0,0-1.35.86,22.73,22.73,0,0,1-6.19,8,34.87,34.87,0,0,1-11.34,5.63,1.5,1.5,0,0,0-1,1.43V714a1.5,1.5,0,0,0,.61,1.2,1.48,1.48,0,0,0,1.33.23,55.62,55.62,0,0,0,8.83-3.39,44,44,0,0,0,4.91-2.91V742a1.5,1.5,0,0,0,1.5,1.5h15.09a1.5,1.5,0,0,0,1.5-1.5v-54.6A1.5,1.5,0,0,0,490.84,685.87Z"/><path class="cls-5" d="M543.9,696a20.4,20.4,0,0,0-3.74-4.87A18,18,0,0,0,534,687.3a26.74,26.74,0,0,0-9.43-1.43c-7.93,0-14,2.22-17.91,6.61s-5.9,11.74-5.9,22.42a57,57,0,0,0,1.12,11.68,25.45,25.45,0,0,0,3.22,8.62,19.32,19.32,0,0,0,7.42,6.85c3,1.55,6.91,2.33,11.64,2.33,8.53,0,14.67-2.48,18.24-7.39,3.48-4.75,5.24-12.25,5.24-22.27a53,53,0,0,0-1.55-12.88A25.28,25.28,0,0,0,543.9,696Zm-23.85,5.67c.86-1.95,2.12-2.86,4-2.86s3.14.9,4.1,2.84c.75,1.54,1.65,5.16,1.65,13.71a51.47,51.47,0,0,1-.75,10.4,8.5,8.5,0,0,1-2,4.29,4,4,0,0,1-2.9,1.17c-1.08,0-2.65-.3-3.91-2.9-1.1-2.29-1.66-6.78-1.66-13.36S519,704,520.05,701.65Z"/><path class="cls-5" d="M599.09,696a20.09,20.09,0,0,0-3.73-4.87,18,18,0,0,0-6.19-3.81,26.74,26.74,0,0,0-9.43-1.43c-7.93,0-14,2.22-17.91,6.61s-5.9,11.74-5.9,22.42a57,57,0,0,0,1.12,11.68,25.45,25.45,0,0,0,3.22,8.62,19.32,19.32,0,0,0,7.42,6.85c3,1.55,6.9,2.33,11.64,2.33,8.53,0,14.67-2.48,18.24-7.39,3.47-4.75,5.24-12.25,5.24-22.27a53.45,53.45,0,0,0-1.55-12.88A24.83,24.83,0,0,0,599.09,696Zm-23.84,5.67c.86-1.95,2.12-2.86,4-2.86s3.14.9,4.1,2.84c.75,1.54,1.65,5.16,1.65,13.71a51.47,51.47,0,0,1-.75,10.4,8.5,8.5,0,0,1-2,4.29,4,4,0,0,1-2.9,1.17c-1.08,0-2.65-.3-3.91-2.9-1.1-2.29-1.66-6.78-1.66-13.36S574.24,704,575.25,701.65Z"/><path class="cls-5" d="M654.29,696a20.09,20.09,0,0,0-3.73-4.87,18,18,0,0,0-6.19-3.81,26.74,26.74,0,0,0-9.43-1.43c-7.93,0-14,2.22-17.91,6.61s-5.9,11.74-5.9,22.42a57,57,0,0,0,1.12,11.68,25.45,25.45,0,0,0,3.22,8.62,19.32,19.32,0,0,0,7.42,6.85c3,1.55,6.9,2.33,11.64,2.33,8.53,0,14.67-2.48,18.24-7.39,3.47-4.75,5.24-12.25,5.24-22.27a53.45,53.45,0,0,0-1.55-12.88A24.83,24.83,0,0,0,654.29,696Zm-23.84,5.67c.86-1.95,2.12-2.86,4-2.86s3.14.9,4.1,2.84c.75,1.54,1.65,5.16,1.65,13.71a51.47,51.47,0,0,1-.75,10.4,8.5,8.5,0,0,1-2,4.29,4,4,0,0,1-2.9,1.17c-1.08,0-2.65-.3-3.91-2.9-1.1-2.29-1.66-6.78-1.66-13.36S629.44,704,630.45,701.65Z"/><path class="cls-5" d="M709.49,696a20.09,20.09,0,0,0-3.73-4.87,18,18,0,0,0-6.19-3.81,26.77,26.77,0,0,0-9.43-1.43c-7.93,0-14,2.22-17.91,6.61s-5.9,11.74-5.9,22.42a57.71,57.71,0,0,0,1.11,11.68,25.66,25.66,0,0,0,3.23,8.62,19.32,19.32,0,0,0,7.42,6.85c3,1.55,6.9,2.33,11.64,2.33,8.53,0,14.67-2.48,18.24-7.39,3.47-4.75,5.23-12.25,5.23-22.27a53.45,53.45,0,0,0-1.54-12.88A24.83,24.83,0,0,0,709.49,696Zm-23.84,5.67c.85-1.95,2.12-2.86,4-2.86s3.14.9,4.09,2.84c.76,1.54,1.66,5.16,1.66,13.71a51.47,51.47,0,0,1-.75,10.4,8.58,8.58,0,0,1-2,4.29,4,4,0,0,1-2.9,1.17c-1.08,0-2.65-.3-3.91-2.9-1.1-2.29-1.66-6.78-1.66-13.36S684.64,704,685.65,701.65Z"/></g><g id="_11" data-name="11"><rect class="cls-6" x="245.79" y="446.05" width="517.79" height="129.88" rx="26.07" ry="26.07"/><path class="cls-7" d="M737.51,583.33H271.86a33.51,33.51,0,0,1-33.47-33.47V472.12a33.51,33.51,0,0,1,33.47-33.47H737.51A33.5,33.5,0,0,1,771,472.12v77.74A33.5,33.5,0,0,1,737.51,583.33ZM271.86,453.45a18.69,18.69,0,0,0-18.67,18.67v77.74a18.7,18.7,0,0,0,18.67,18.67H737.51a18.7,18.7,0,0,0,18.67-18.67V472.12a18.69,18.69,0,0,0-18.67-18.67Z"/><path class="cls-7" d="M347.66,543.93c-37.62,0-67.48-28.66-68.74-29.88a4.27,4.27,0,0,1,0-6.12c1.26-1.22,31.12-29.88,68.74-29.88s67.49,28.66,68.75,29.88a4.27,4.27,0,0,1,0,6.12C415.15,515.27,385.29,543.93,347.66,543.93ZM288.36,511c8.6,7.16,32.15,24.41,59.3,24.41S398.37,518.15,407,511c-8.6-7.16-32.15-24.41-59.31-24.41S297,503.83,288.36,511Z"/><path class="cls-7" d="M347.66,544.16A33.18,33.18,0,1,1,381.16,511,33.37,33.37,0,0,1,347.66,544.16Zm0-57.35A24.18,24.18,0,1,0,372.16,511,24.37,24.37,0,0,0,347.66,486.81Z"/><path class="cls-5" d="M508,524.17H488.48l.7-.6c1-.8,3-2.24,5.94-4.29,5.26-3.71,8.81-7,10.86-10.23a18.63,18.63,0,0,0,3.11-10.18,16.06,16.06,0,0,0-2.77-9.17,16.34,16.34,0,0,0-7.56-6.06c-3.08-1.27-7.39-1.91-12.81-1.91-5.22,0-9.4.68-12.42,2a16.44,16.44,0,0,0-7.25,6,25.11,25.11,0,0,0-3.46,10.45,1.48,1.48,0,0,0,1.36,1.7l14.94,1.21a1.49,1.49,0,0,0,1.61-1.29c.36-2.64,1.06-4.53,2-5.47a5.41,5.41,0,0,1,7.13,0,4.12,4.12,0,0,1,1.35,3.11,6.9,6.9,0,0,1-1.55,3.92c-1.12,1.55-3.83,3.93-8.06,7.07-7.26,5.37-12.3,10.14-15,14.16a29.58,29.58,0,0,0-4.92,13.13,1.56,1.56,0,0,0,.37,1.17,1.52,1.52,0,0,0,1.12.5H508a1.5,1.5,0,0,0,1.5-1.5V525.67A1.51,1.51,0,0,0,508,524.17Z"/><path class="cls-5" d="M519.34,531.06a19.34,19.34,0,0,0,7.42,6.86,25.49,25.49,0,0,0,11.64,2.33c8.53,0,14.66-2.49,18.24-7.39s5.23-12.25,5.23-22.27a53.39,53.39,0,0,0-1.54-12.88,24.92,24.92,0,0,0-2.17-5.87,20.09,20.09,0,0,0-3.73-4.87,18.15,18.15,0,0,0-6.19-3.8,26.55,26.55,0,0,0-9.44-1.44c-7.92,0-13.95,2.22-17.9,6.61s-5.9,11.74-5.9,22.43a57.85,57.85,0,0,0,1.11,11.68A25.6,25.6,0,0,0,519.34,531.06Zm18.95-36.41c1.84,0,3.14.91,4.09,2.85.76,1.53,1.66,5.16,1.66,13.71a51.42,51.42,0,0,1-.75,10.39,8.54,8.54,0,0,1-2,4.29,4,4,0,0,1-2.9,1.18c-1.08,0-2.65-.3-3.91-2.91-1.1-2.28-1.66-6.78-1.66-13.35s.51-11,1.52-13.3C535.17,495.56,536.44,494.65,538.29,494.65Z"/><path class="cls-5" d="M574.54,531.06a19.27,19.27,0,0,0,7.42,6.86,25.49,25.49,0,0,0,11.64,2.33c8.53,0,14.66-2.49,18.24-7.39s5.23-12.25,5.23-22.27a53.39,53.39,0,0,0-1.54-12.88,24.92,24.92,0,0,0-2.17-5.87,20.35,20.35,0,0,0-3.73-4.87,18.15,18.15,0,0,0-6.19-3.8,26.55,26.55,0,0,0-9.44-1.44c-7.92,0-14,2.22-17.9,6.61s-5.9,11.74-5.9,22.43a57.85,57.85,0,0,0,1.11,11.68A25.6,25.6,0,0,0,574.54,531.06Zm19-36.41c1.84,0,3.14.91,4.09,2.85.76,1.53,1.66,5.16,1.66,13.71a51.42,51.42,0,0,1-.75,10.39,8.46,8.46,0,0,1-2,4.29,4,4,0,0,1-2.9,1.18c-1.07,0-2.64-.3-3.9-2.91-1.1-2.28-1.66-6.78-1.66-13.35s.51-11,1.52-13.3C590.37,495.56,591.63,494.65,593.49,494.65Z"/><path class="cls-5" d="M629.74,531.06a19.27,19.27,0,0,0,7.42,6.86,25.49,25.49,0,0,0,11.64,2.33c8.53,0,14.66-2.49,18.24-7.39s5.23-12.25,5.23-22.27a53.39,53.39,0,0,0-1.54-12.88,24.92,24.92,0,0,0-2.17-5.87,20.35,20.35,0,0,0-3.73-4.87,18.15,18.15,0,0,0-6.19-3.8,26.55,26.55,0,0,0-9.44-1.44c-7.92,0-14,2.22-17.9,6.61s-5.9,11.74-5.9,22.43a57.85,57.85,0,0,0,1.11,11.68A25.6,25.6,0,0,0,629.74,531.06Zm19-36.41c1.84,0,3.14.91,4.09,2.85.76,1.53,1.66,5.16,1.66,13.71a51.42,51.42,0,0,1-.75,10.39,8.54,8.54,0,0,1-2,4.29,4,4,0,0,1-2.91,1.18c-1.07,0-2.64-.3-3.9-2.91-1.1-2.28-1.66-6.78-1.66-13.35s.51-11,1.52-13.3C645.57,495.56,646.84,494.65,648.69,494.65Z"/><path class="cls-5" d="M684.94,531.06a19.27,19.27,0,0,0,7.42,6.86A25.49,25.49,0,0,0,704,540.25c8.53,0,14.66-2.49,18.24-7.39s5.23-12.25,5.23-22.27a53.39,53.39,0,0,0-1.54-12.88,24.92,24.92,0,0,0-2.17-5.87A20.14,20.14,0,0,0,720,487a18,18,0,0,0-6.18-3.8,26.55,26.55,0,0,0-9.44-1.44c-7.92,0-13.95,2.22-17.9,6.61s-5.9,11.74-5.9,22.43a57.14,57.14,0,0,0,1.11,11.68A25.6,25.6,0,0,0,684.94,531.06Zm18.95-36.41c1.84,0,3.14.91,4.09,2.85.76,1.53,1.66,5.16,1.66,13.71a51.42,51.42,0,0,1-.75,10.39,8.54,8.54,0,0,1-2,4.29,4,4,0,0,1-2.9,1.18c-1.07,0-2.64-.3-3.9-2.91-1.1-2.28-1.66-6.78-1.66-13.35s.51-11,1.52-13.3C700.77,495.56,702,494.65,703.89,494.65Z"/></g><g id="_10" data-name="10"><rect class="cls-6" x="245.79" y="252.46" width="517.79" height="129.88" rx="26.07" ry="26.07"/><path class="cls-7" d="M737.51,389.75H271.86a33.52,33.52,0,0,1-33.47-33.48V278.53a33.51,33.51,0,0,1,33.47-33.47H737.51A33.5,33.5,0,0,1,771,278.53v77.74A33.51,33.51,0,0,1,737.51,389.75ZM271.86,259.86a18.7,18.7,0,0,0-18.67,18.67v77.74a18.69,18.69,0,0,0,18.67,18.67H737.51a18.69,18.69,0,0,0,18.67-18.67V278.53a18.7,18.7,0,0,0-18.67-18.67Z"/><path class="cls-5" d="M400.71,300.71a24.13,24.13,0,0,1-7,17.14l-6,6-34.09,34.33L319.3,324.11l-6-6a24.19,24.19,0,0,1,34.08-34.35l6,6,6-6a24.19,24.19,0,0,1,41.36,16.95Z"/><path class="cls-7" d="M400.71,300.71a24.13,24.13,0,0,1-7,17.14l-6,6-34.09,34.33-.26-68.42,6-6a24.19,24.19,0,0,1,41.36,16.95Z"/><path class="cls-5" d="M449.2,317.47a1.51,1.51,0,0,0,1.33.23,57.07,57.07,0,0,0,8.82-3.39,43.38,43.38,0,0,0,4.92-2.92v32.85a1.5,1.5,0,0,0,1.5,1.5h15.08a1.5,1.5,0,0,0,1.5-1.5v-54.6a1.5,1.5,0,0,0-1.5-1.5H468.51a1.49,1.49,0,0,0-1.35.86,22.77,22.77,0,0,1-6.19,8,35.07,35.07,0,0,1-11.34,5.63,1.49,1.49,0,0,0-1,1.42v12.24A1.5,1.5,0,0,0,449.2,317.47Z"/><path class="cls-5" d="M518.18,306.67a22.08,22.08,0,0,0-5.17.63,26,26,0,0,0-2.67.8L511,304h22.71a1.5,1.5,0,0,0,1.5-1.5v-11.9a1.5,1.5,0,0,0-1.5-1.5H498.3a1.49,1.49,0,0,0-1.48,1.26l-4.73,28.85a1.5,1.5,0,0,0,1.27,1.73l12.7,1.83a1.51,1.51,0,0,0,1.34-.49,10.82,10.82,0,0,1,2.88-2.45,7.26,7.26,0,0,1,3.47-.89,5.55,5.55,0,0,1,4.35,1.75c1.1,1.2,1.66,3.22,1.66,6s-.56,4.78-1.67,6.07a5,5,0,0,1-4,1.84,5.29,5.29,0,0,1-3.77-1.48,7.75,7.75,0,0,1-2.11-4.64,1.5,1.5,0,0,0-1.65-1.27l-15.08,1.65a1.49,1.49,0,0,0-1.28,1.91,25.39,25.39,0,0,0,2.93,6.7,19.6,19.6,0,0,0,4.66,4.9,20,20,0,0,0,7,3.25,37.53,37.53,0,0,0,9.49,1.06c5.15,0,9.47-.91,12.84-2.7A19.06,19.06,0,0,0,535,336a22.42,22.42,0,0,0,2.76-10.71A17.88,17.88,0,0,0,532.3,312C528.68,308.45,523.93,306.67,518.18,306.67Z"/><path class="cls-5" d="M589.11,298.25a20.09,20.09,0,0,0-3.73-4.87,18.15,18.15,0,0,0-6.19-3.8,26.76,26.76,0,0,0-9.43-1.44c-7.93,0-14,2.23-17.91,6.61s-5.9,11.74-5.9,22.43a57.85,57.85,0,0,0,1.11,11.68,25.51,25.51,0,0,0,3.23,8.61,19.27,19.27,0,0,0,7.42,6.86c3,1.55,6.9,2.33,11.64,2.33,8.53,0,14.66-2.49,18.24-7.39S592.82,327,592.82,317a53.39,53.39,0,0,0-1.54-12.88A24.92,24.92,0,0,0,589.11,298.25Zm-23.84,5.67a4.07,4.07,0,0,1,4-2.85c1.84,0,3.14.9,4.09,2.84.76,1.54,1.66,5.16,1.66,13.71a51.61,51.61,0,0,1-.75,10.4,8.54,8.54,0,0,1-2,4.28,4,4,0,0,1-2.9,1.18c-1.08,0-2.65-.3-3.91-2.91-1.1-2.28-1.66-6.78-1.66-13.35S564.26,306.22,565.27,303.92Z"/><path class="cls-5" d="M644.31,298.25a20.09,20.09,0,0,0-3.73-4.87,18.15,18.15,0,0,0-6.19-3.8,26.76,26.76,0,0,0-9.43-1.44c-7.93,0-14,2.23-17.91,6.61s-5.9,11.74-5.9,22.43a57.85,57.85,0,0,0,1.11,11.68,25.51,25.51,0,0,0,3.23,8.61,19.27,19.27,0,0,0,7.42,6.86c3,1.55,6.9,2.33,11.64,2.33,8.53,0,14.67-2.49,18.24-7.39S648,327,648,317a53.39,53.39,0,0,0-1.54-12.88A24.92,24.92,0,0,0,644.31,298.25Zm-23.84,5.67a4.07,4.07,0,0,1,4-2.85c1.84,0,3.14.9,4.09,2.84.76,1.54,1.66,5.16,1.66,13.71a51.61,51.61,0,0,1-.75,10.4,8.54,8.54,0,0,1-2,4.28,4,4,0,0,1-2.9,1.18c-1.08,0-2.65-.3-3.91-2.91-1.1-2.28-1.66-6.78-1.66-13.35S619.46,306.22,620.47,303.92Z"/><path class="cls-5" d="M660.69,337.47a19.2,19.2,0,0,0,7.42,6.86c3,1.55,6.9,2.33,11.64,2.33,8.53,0,14.66-2.49,18.24-7.39S703.22,327,703.22,317a53.39,53.39,0,0,0-1.54-12.88,24.92,24.92,0,0,0-2.17-5.87,20.35,20.35,0,0,0-3.73-4.87,18.15,18.15,0,0,0-6.19-3.8,26.78,26.78,0,0,0-9.44-1.44c-7.92,0-13.95,2.23-17.9,6.61s-5.9,11.74-5.9,22.43a57.85,57.85,0,0,0,1.11,11.68A25.51,25.51,0,0,0,660.69,337.47Zm18.95-36.4c1.84,0,3.14.9,4.09,2.84.76,1.54,1.66,5.16,1.66,13.71a51.61,51.61,0,0,1-.75,10.4,8.54,8.54,0,0,1-2,4.28,4,4,0,0,1-2.9,1.18c-1.08,0-2.65-.3-3.91-2.91-1.1-2.28-1.66-6.78-1.66-13.35s.51-11,1.52-13.3A4.07,4.07,0,0,1,679.64,301.07Z"/></g><g id="_9" data-name="9"><rect class="cls-6" x="893.96" y="344.95" width="212.07" height="212.07" rx="34.13" ry="34.13"/><path class="cls-7" d="M1071.89,564.42H928.09a41.59,41.59,0,0,1-41.54-41.53V379.08a41.59,41.59,0,0,1,41.54-41.53h143.8a41.59,41.59,0,0,1,41.54,41.53V522.89A41.59,41.59,0,0,1,1071.89,564.42ZM928.09,352.35a26.76,26.76,0,0,0-26.73,26.73V522.89a26.76,26.76,0,0,0,26.73,26.73h143.8a26.76,26.76,0,0,0,26.73-26.73V379.08a26.76,26.76,0,0,0-26.73-26.73Z"/><circle class="cls-6" cx="999.99" cy="450.98" r="74.38"/><path class="cls-7" d="M1000,532.76A81.78,81.78,0,1,1,1081.77,451,81.87,81.87,0,0,1,1000,532.76ZM1000,384a67,67,0,1,0,67,67A67,67,0,0,0,1000,384Z"/><polygon class="cls-7" points="1040.61 450.98 970.8 410.68 970.8 491.29 1040.61 450.98"/></g><g id="_8" data-name="8"><rect class="cls-6" x="1159.49" y="176.1" width="212.07" height="212.07" rx="34.13" ry="34.13"/><path class="cls-7" d="M1337.43,395.58H1193.62A41.59,41.59,0,0,1,1152.09,354V210.24a41.58,41.58,0,0,1,41.53-41.54h143.81A41.58,41.58,0,0,1,1379,210.24V354A41.59,41.59,0,0,1,1337.43,395.58ZM1193.62,183.51a26.76,26.76,0,0,0-26.73,26.73V354a26.76,26.76,0,0,0,26.73,26.73h143.81A26.76,26.76,0,0,0,1364.16,354V210.24a26.76,26.76,0,0,0-26.73-26.73Z"/><path class="cls-6" d="M1245.27,237.71v0Z"/><path class="cls-7" d="M1245.27,334a7.4,7.4,0,0,1-7.4-7.41V237.71a7.4,7.4,0,0,1,14.8,0v88.85A7.4,7.4,0,0,1,1245.27,334Z"/><path class="cls-6" d="M1285.78,237.71v0Z"/><path class="cls-7" d="M1285.78,334a7.4,7.4,0,0,1-7.4-7.41V237.71a7.4,7.4,0,0,1,14.8,0v88.85A7.4,7.4,0,0,1,1285.78,334Z"/></g><g id="_7" data-name="7"><rect class="cls-6" x="171.92" y="1018.29" width="409.47" height="538.08" rx="51.82" ry="51.82"/><path class="cls-7" d="M529.58,1563.78H223.74a59.29,59.29,0,0,1-59.22-59.22V1070.11a59.29,59.29,0,0,1,59.22-59.22H529.58a59.29,59.29,0,0,1,59.22,59.22v434.45A59.29,59.29,0,0,1,529.58,1563.78ZM223.74,1025.69a44.47,44.47,0,0,0-44.42,44.42v434.45A44.47,44.47,0,0,0,223.74,1549H529.58A44.46,44.46,0,0,0,574,1504.56V1070.11a44.47,44.47,0,0,0-44.41-44.42Z"/><path class="cls-8" d="M504.35,1171.44c-49-.87-48.94-73.62,0-74.49C553.3,1097.83,553.3,1170.57,504.35,1171.44Zm0-68.5c-41.08.73-41.07,61.78,0,62.51C545.43,1164.72,545.43,1103.67,504.35,1102.94Z"/><path class="cls-8" d="M504.35,1273.54c-49-.88-48.94-73.63,0-74.5C553.3,1199.92,553.3,1272.67,504.35,1273.54Zm0-68.51c-41.08.74-41.07,61.79,0,62.52C545.43,1266.81,545.43,1205.76,504.35,1205Z"/><path class="cls-8" d="M504.35,1375.63c-49-.88-48.94-73.63,0-74.5C553.3,1302,553.3,1374.76,504.35,1375.63Zm0-68.51c-41.08.74-41.07,61.79,0,62.52C545.43,1368.9,545.43,1307.85,504.35,1307.12Z"/><path class="cls-8" d="M504.35,1477.72c-49-.88-48.94-73.63,0-74.5C553.3,1404.1,553.3,1476.85,504.35,1477.72Zm0-68.51c-41.08.74-41.07,61.79,0,62.52C545.43,1471,545.43,1409.94,504.35,1409.21Z"/><path class="cls-26" d="M508.34,1152.16c-3.56,1.32-21.64-20.06-24.25-21.76-5.51-5.56,2.91-14,8.47-8.47l15.78,15.77,35.49-35.48c5.56-5.51,14,2.9,8.47,8.47C550.58,1111.5,510.23,1155.19,508.34,1152.16Z"/><path class="cls-26" d="M508.34,1355.24c-3.56,1.31-21.64-20.07-24.25-21.77-5.51-5.56,2.91-14,8.47-8.47l15.78,15.78,35.49-35.49c5.56-5.51,14,2.9,8.47,8.47C550.58,1314.57,510.23,1358.27,508.34,1355.24Z"/><path class="cls-26" d="M508.34,1456.77c-3.56,1.32-21.64-20.06-24.25-21.76-5.51-5.56,2.91-14,8.47-8.47l15.78,15.78,35.49-35.49c5.56-5.51,14,2.9,8.47,8.47C550.58,1416.11,510.23,1459.8,508.34,1456.77Z"/><path class="cls-7" d="M435,1125.9H214.83a6,6,0,0,1,0-12H435C442.79,1113.94,442.92,1125.86,435,1125.9Z"/><path class="cls-7" d="M390.58,1154.47H214.83c-7.79,0-7.87-11.94,0-12H390.58C398.36,1142.52,398.46,1154.44,390.58,1154.47Z"/><path class="cls-7" d="M435,1330.08H214.83a6,6,0,0,1,0-12H435C442.79,1318.12,442.92,1330,435,1330.08Z"/><path class="cls-7" d="M390.58,1358.66H214.83c-7.79,0-7.87-12,0-12H390.58C398.36,1346.7,398.46,1358.62,390.58,1358.66Z"/><path class="cls-7" d="M390.58,1228H214.83c-7.79,0-7.87-12,0-12H390.58C398.36,1216,398.46,1228,390.58,1228Z"/><path class="cls-7" d="M435,1256.57H214.83a6,6,0,1,1,0-12H435C442.79,1244.61,442.92,1256.53,435,1256.57Z"/><path class="cls-7" d="M390.58,1432.17H214.83c-7.79,0-7.87-11.94,0-12H390.58C398.36,1420.22,398.46,1432.14,390.58,1432.17Z"/><path class="cls-7" d="M435,1460.75H214.83a6,6,0,0,1,0-12H435C442.79,1448.79,442.92,1460.71,435,1460.75Z"/><path class="cls-26" d="M497.4,1264.22a6.1,6.1,0,0,1-4.31-10.41l43.66-43.66a6.1,6.1,0,0,1,8.62,8.62l-43.66,43.66A6.08,6.08,0,0,1,497.4,1264.22Z"/><path class="cls-26" d="M541.06,1264.22a6.08,6.08,0,0,1-4.31-1.79l-43.66-43.66a6.1,6.1,0,1,1,8.62-8.62l43.66,43.66a6.1,6.1,0,0,1-4.31,10.41Z"/></g><g id="_6" data-name="6"><rect class="cls-5" x="1482.48" y="134.38" width="70" height="297.33" rx="19.47" ry="19.47"/><path class="cls-7" d="M1517.47,529.4c-36.62,0-65.69-27.9-66.91-29.09a4.14,4.14,0,0,1,0-5.95c1.22-1.19,30.29-29.09,66.91-29.09s65.7,27.9,66.92,29.09a4.14,4.14,0,0,1,0,5.95C1583.17,501.5,1554.1,529.4,1517.47,529.4Zm-57.73-32.06c8.38,7,31.3,23.76,57.73,23.76s49.36-16.79,57.74-23.76c-8.38-7-31.3-23.76-57.74-23.76S1468.12,490.37,1459.74,497.34Z"/><path class="cls-7" d="M1517.47,529.63a32.3,32.3,0,1,1,32.61-32.29A32.49,32.49,0,0,1,1517.47,529.63Zm0-55.83a23.54,23.54,0,1,0,23.85,23.54A23.72,23.72,0,0,0,1517.47,473.8Z"/></g><g id="_5-3" data-name="5"><rect class="cls-7" x="1829.65" y="182.46" width="70" height="249.25" rx="19.47" ry="19.47"/><path class="cls-5" d="M1910.68,481.09a23.46,23.46,0,0,1-6.84,16.68l-5.8,5.85L1864.85,537l-33.43-33.17-5.84-5.81a23.55,23.55,0,0,1,33.19-33.43l5.84,5.81,5.8-5.85a23.55,23.55,0,0,1,40.27,16.5Z"/><path class="cls-7" d="M1910.68,481.09a23.46,23.46,0,0,1-6.84,16.68l-5.8,5.85L1864.85,537l-.24-66.6,5.8-5.85a23.55,23.55,0,0,1,40.27,16.5Z"/></g><g id="_4" data-name="4"><rect class="cls-8" x="1656.06" y="235.15" width="70" height="196.56" rx="19.47" ry="19.47"/><ellipse class="cls-7" cx="1716.58" cy="472.88" rx="20.22" ry="20"/><path class="cls-7" d="M1746.77,541.79h-60.38v-15.4a30.19,30.19,0,0,1,30.19-30.18h0a30.18,30.18,0,0,1,30.19,30.18Z"/><path class="cls-7" d="M1651.38,517.74a4.38,4.38,0,0,1-4.38-4.38V481.31a4.38,4.38,0,1,1,8.76,0v32.05A4.38,4.38,0,0,1,1651.38,517.74Z"/><path class="cls-7" d="M1667.41,501.72h-32.06a4.38,4.38,0,1,1,0-8.76h32.06a4.38,4.38,0,0,1,0,8.76Z"/></g><g id="_3-3" data-name="3"><ellipse class="cls-7" cx="2759.05" cy="235.1" rx="20.77" ry="20.54"/><path class="cls-7" d="M2790.07,305.89h-62V290.07a31,31,0,0,1,31-31h0a31,31,0,0,1,31,31Z"/><path class="cls-7" d="M2692.07,281a4.27,4.27,0,0,1-4.26-4.27V243.76a4.27,4.27,0,1,1,8.53,0v32.92A4.27,4.27,0,0,1,2692.07,281Z"/><path class="cls-7" d="M2708.54,264.49h-32.93a4.27,4.27,0,1,1,0-8.54h32.93a4.27,4.27,0,0,1,0,8.54Z"/></g><g id="_2" data-name="2"><path class="cls-5" d="M2171.67,265.78a24.13,24.13,0,0,1-7,17.14l-6,6-34.09,34.33-34.34-34.08-6-6a24.2,24.2,0,0,1,34.09-34.35l6,6,6-6a24.19,24.19,0,0,1,41.36,16.95Z"/><path class="cls-7" d="M2171.67,265.78a24.13,24.13,0,0,1-7,17.14l-6,6-34.09,34.33-.25-68.42,6-6a24.19,24.19,0,0,1,41.36,16.95Z"/></g><g id="_1" data-name="1"><path class="cls-7" d="M2659.54,706.48c-37.62,0-67.49-28.66-68.74-29.88a4.27,4.27,0,0,1,0-6.12c1.25-1.22,31.12-29.88,68.74-29.88s67.49,28.66,68.74,29.88a4.27,4.27,0,0,1,0,6.12C2727,677.82,2697.16,706.48,2659.54,706.48Zm-59.31-32.94c8.61,7.16,32.16,24.41,59.31,24.41s50.7-17.25,59.31-24.41c-8.61-7.16-32.15-24.41-59.31-24.41S2608.84,666.38,2600.23,673.54Z"/><path class="cls-7" d="M2659.54,706.72A33.18,33.18,0,1,1,2693,673.54,33.38,33.38,0,0,1,2659.54,706.72Zm0-57.35A24.18,24.18,0,1,0,2684,673.54,24.35,24.35,0,0,0,2659.54,649.37Z"/></g></g></g></svg>