<svg xmlns="http://www.w3.org/2000/svg" viewBox="0 0 1070.6 2171.87"><defs><style>.cls-1{fill:#fbb;}.cls-2{fill:#bac2ce;}.cls-3{fill:#161616;}.cls-4{fill:#383838;}.cls-5{fill:#492b2a;}.cls-6{fill:#a36161;}.cls-7{fill:#ff825c;}.cls-14,.cls-15,.cls-8{fill:none;stroke-linecap:round;stroke-linejoin:round;}.cls-8{stroke:#a36161;stroke-width:0.79px;}.cls-9{fill:#fff;}.cls-10{fill:#4f8e8c;}.cls-11{fill:#65b7b7;}.cls-12{fill:#aee2e5;}.cls-13{fill:#261515;}.cls-14{stroke:#261515;stroke-width:0.77px;}.cls-15{stroke:#4f8e8c;stroke-width:0.35px;}</style></defs><title>资源 3</title><g id="图层_2" data-name="图层 2"><g id="央铋_1" data-name="央铋 1"><path class="cls-1" d="M858.19,552.27a899.42,899.42,0,0,1-17,135.8c-1.17,6.26-2.48,13-3.64,20.09-5.1,28.24-10.49,62.73-15.14,103.2-32.17-13-80.35-38.86-120.67-88.64a295.7,295.7,0,0,1-44.1-75.55c22.12-20.23,36-31.44,47.89-42.5a276.21,276.21,0,0,0,24-24.6c-24.31-11.79-59.82-33.91-86.89-73.5a202.48,202.48,0,0,1-18.2-32.75c3.78-4.66,7.13-8.74,10.63-12.81l.14-.15v-.14c34.5-41.05,49.06-50.8,58.08-56.48a178.05,178.05,0,0,1,24.45-13.1h.15l.29-.29a225.86,225.86,0,0,1,27.07-10.62h.15c3.05-1,5.82-1.9,8.44-2.62l9.17-1.32a87.07,87.07,0,0,1,32.75,0A85,85,0,0,1,827.48,390a273.88,273.88,0,0,1,24.6,64c1.31,5.1,2.62,10.77,3.64,17.18a281.4,281.4,0,0,1,3.2,42.79C859.07,524.91,858.92,537.42,858.19,552.27Z"/><path class="cls-2" d="M316,360.58a11.67,11.67,0,0,0,1,1.89,65.77,65.77,0,0,0-3.2,9L289.94,384.3,246.13,279.06l89.23-24,8.15,19.5c-14.7,14.56-24.6,33.48-28.68,41.2a140.25,140.25,0,0,0-8,17.9A111.46,111.46,0,0,0,316,360.58Z"/><path class="cls-2" d="M242.35,409.92,164,452a2.31,2.31,0,0,0-.44-1.31l-55.75-134.2,85.88-23.29Z"/><path class="cls-3" d="M150.65,482.26l-32.89,13.68L96.35,444.41l-27.21-65.5L40.9,311.38l32.9-13.69a24,24,0,0,1,31.58,13l2.33,5.82,55.89,134.2A2.31,2.31,0,0,1,164,452,24.13,24.13,0,0,1,150.65,482.26Z"/><path class="cls-3" d="M.76,338.4a61.69,61.69,0,0,0,20.38,26.2A62.86,62.86,0,0,0,52,377l17.17,1.89L40.93,311.33,5.86,325.88A9.47,9.47,0,0,0,.76,338.4Z"/><path class="cls-3" d="M69.32,494.15,73,502.88a10.71,10.71,0,0,0,14.12,5.82l30.72-12.81-21.4-51.52L73,471.44A21.56,21.56,0,0,0,69.32,494.15Z"/><polygon class="cls-4" points="289.94 384.3 242.35 409.92 193.73 293.18 246.13 279.06 289.94 384.3"/><path class="cls-5" d="M787.6,206.14c-6.26,19.07-15.57,33.62-26.49,40a20.12,20.12,0,0,1-6,2.76c-10,3.21-25.18.44-48-20.38a29.27,29.27,0,0,0,4.36-1.45c16.89-7.28,25-29.4,21.84-47.31-1.89-9.89-9.32-30-24.31-30.27-9.46-.29-19.21,7.57-24.31,19.36l3.64,6.11c-10.91,2.33-18.63.44-23-1.16-18.19-7.14-30.27-29.55-30.86-57.93a137.86,137.86,0,0,1-24.89,7c-14.41,2.48-41.62,7.28-64.77-1.74a53.83,53.83,0,0,1-22.56-15.29c-19.35-22.27-24-63.17-1.31-87.33,17-18,43.67-20.67,63.17-15.72A66.32,66.32,0,0,1,609,15,121.85,121.85,0,0,1,676.25.33c49.63,3.78,79.91,37.69,88.5,48.46a132.84,132.84,0,0,1,20.81,37v.14C800.7,126.23,798.66,173,787.6,206.14Z"/><path class="cls-5" d="M922.53,207.74c-28.38,25.91-69.72,28.82-100.72,18.2a100.9,100.9,0,0,1-34.21-19.8c11.06-33.19,13.1-79.91-2-120.23v-.14c5.82-10.92,16-24.89,32.61-34.5,35.65-20.81,83.84-11.79,111.64,17C966.92,106.87,959.94,173.53,922.53,207.74Z"/><path class="cls-6" d="M803.61,343.54l-5.39,2.92L779.3,356.94a90.68,90.68,0,0,0-14.4,7.57h-.3a94.51,94.51,0,0,0-46.43,26.34l-.29.29h-.15a178.05,178.05,0,0,0-24.45,13.1c-9,5.68-23.58,15.43-58.08,56.48.73-6.11,1.75-12.67,2.91-19.07,4.08-22.71,10.19-45.12,13.83-50.8a68.45,68.45,0,0,1,15-16.59c14.71-11.79,35.52-19.65,67.54-39.15,15.43-9.32,28.09-18.2,37.56-25a2.3,2.3,0,0,1,1-.58A9.33,9.33,0,0,1,786,313l7.42,12.81Z"/><path class="cls-7" d="M773,309.49a2.3,2.3,0,0,0-1,.58c-9.47,6.84-22.13,15.72-37.56,25-32,19.5-52.83,27.36-67.54,39.15A341.48,341.48,0,0,0,662.86,306c-1.17-7.13-2.48-14-3.93-20.67-19.51-.29-58.66-4.22-83.4-32.75-15.73-18.19-19.36-38.86-25.48-73.94a352.7,352.7,0,0,1-5.24-57.49c23.15,9,50.36,4.22,64.77,1.74a137.86,137.86,0,0,0,24.89-7c.59,28.38,12.67,50.79,30.86,57.93,4.37,1.6,12.09,3.49,23,1.16l-3.64-6.11c5.1-11.79,14.85-19.65,24.31-19.36,15,.29,22.42,20.38,24.31,30.27,3.2,17.91-4.95,40-21.84,47.31a29.27,29.27,0,0,1-4.36,1.45c22.85,20.82,38,23.59,48,20.38a20.12,20.12,0,0,0,6-2.76c2.47,17,5.68,34.93,9.75,53.71Q772,304.68,773,309.49Z"/><path class="cls-8" d="M791.53,434.52a175.79,175.79,0,0,1-2.47,36.39c-6.55,37.26-24.16,65.49-48.48,95.92-4.07,4.94-7.71,9.31-11.05,13.24"/><path class="cls-3" d="M952.66,717c-.73,13.83-1.89,28.09-3.2,42.79-14.12.58-28.82.73-44-.14-2.47-.15-5-.29-7.43-.58-17.61-1.46-38.57-5-55.89-8.59q-6.12-1.1-11.35-2.19c0-.43.14-.72.14-1,2.19-14.11,4.37-27.21,6.56-39.15a412.92,412.92,0,0,0,66.8,9A444.1,444.1,0,0,0,952.66,717Z"/><path class="cls-4" d="M949.46,759.83q-4.15,50-11.94,106.84c-.29,2.76-.73,5.53-1.17,8.3-7.13,1.16-15.13,2.18-23.86,2.77a221.7,221.7,0,0,1-62.74-5.25l-7-1.74a201.91,201.91,0,0,1-25.48-8.59q.66-7.2,1.31-14c.15-2.62.44-5.24.73-7.71,1-10,2-19.8,3.06-29.11,2.62-23,5.53-44,8.44-63q5.24,1.09,11.35,2.19c17.32,3.63,38.28,7.13,55.89,8.59,2.48.29,5,.43,7.43.58C920.64,760.56,935.34,760.41,949.46,759.83Z"/><path class="cls-1" d="M805.94,841.93a1260,1260,0,0,1-164.33,6.25c-21-.58-41.48-1.59-61.28-3.19-1.31-6.85-2.48-14-3.5-21.11-5.09-32.46-8.29-63.61-10.33-93,17.76-13.25,34.5-30.13,55.17-50.08,3.78-3.63,7.27-7,10.62-10a320.2,320.2,0,0,0,20.38,35.52C698.23,776.43,759.36,817.91,805.94,841.93Z"/><path class="cls-1" d="M638.11,441.65c-1.16,6.4-2.18,13-2.91,19.07v.14l-.14.15c-3.5,4.07-6.85,8.15-10.63,12.81-4.8,5.82-9.75,12.08-15.28,18.78-5.39,7.13-11.35,14.84-17.76,23.28C576.83,535,564,552.42,552.82,568.28c-5.68-18.92-3.2-31.73-1.16-38.57,4.51-14.56,13.67-22.27,55.45-60C619.78,458.39,630.4,448.64,638.11,441.65Z"/><path class="cls-3" d="M811.18,363.49c-1.75-.3-3.49-.59-5.38-.88h-.15a109.5,109.5,0,0,0-40.75,1.9,90.68,90.68,0,0,1,14.4-7.57l18.92-10.48c3.21,3.78,6.85,8.44,10.48,13.68.73,1,1.46,1.89,2.19,2.91C811,363.19,811,363.34,811.18,363.49Z"/><path class="cls-3" d="M954.41,519.52a449.41,449.41,0,0,1-46.44,0A438.93,438.93,0,0,1,858.92,514a281.4,281.4,0,0,0-3.2-42.79A436,436,0,0,0,906.66,477a413.43,413.43,0,0,0,44.54,0C952.52,490.12,953.53,504.24,954.41,519.52Z"/><path class="cls-4" d="M951.2,477a413.43,413.43,0,0,1-44.54,0,436,436,0,0,1-50.94-5.82c-1-6.41-2.33-12.08-3.64-17.18a273.88,273.88,0,0,0-24.6-64,285.44,285.44,0,0,0-16.3-26.49c-.15-.15-.15-.3-.29-.44-.73-1-1.46-1.89-2.19-2.91a192.45,192.45,0,0,1,41-26.2,200.34,200.34,0,0,1,65.79-18.63c5,14.26,10.92,32.89,16.6,55C940,400,946.69,433.35,951.2,477Z"/><path class="cls-2" d="M1063.43,456.5A439.44,439.44,0,0,1,951.2,477c-4.51-43.67-11.2-77-19.06-106.69-5.68-22.13-11.65-40.76-16.6-55q6.56-.66,11.79-.88l78.46,11.36a2.62,2.62,0,0,1,1,.29c.14,0,.29.15.43.15A235.08,235.08,0,0,1,1033,339.91a47.51,47.51,0,0,1,12.08,21.39A768.52,768.52,0,0,1,1063.43,456.5Z"/><path class="cls-4" d="M1067.94,497.83a441.55,441.55,0,0,1-113.53,21.69c-.88-15.28-1.89-29.4-3.21-42.5a439.44,439.44,0,0,0,112.23-20.52C1065.32,469.74,1066.78,483.57,1067.94,497.83Z"/><path class="cls-4" d="M956.44,603.22c-.14,32.89-1,71.17-3.78,113.82a444.1,444.1,0,0,1-48.33.14,412.92,412.92,0,0,1-66.8-9c1.16-7.13,2.47-13.83,3.64-20.09a899.42,899.42,0,0,0,17-135.8c.73-14.85.88-27.36.73-38.28A438.93,438.93,0,0,0,908,519.52a449.41,449.41,0,0,0,46.44,0C955.86,544.27,956.59,571.77,956.44,603.22Z"/><path class="cls-2" d="M1070.41,546.16A809.47,809.47,0,0,1,1059.5,697.1,439.69,439.69,0,0,1,952.66,717c2.76-42.65,3.64-80.93,3.78-113.82.15-31.45-.58-59-2-83.7a441.55,441.55,0,0,0,113.53-21.69C1069.25,513.41,1070.13,529.56,1070.41,546.16Z"/><path class="cls-4" d="M1059.5,697.1c-2.77,15.86-5.68,31-8.88,45.56a447.7,447.7,0,0,1-101.16,17.17c1.31-14.7,2.47-29,3.2-42.79A440.17,440.17,0,0,0,1059.5,697.1Z"/><path class="cls-2" d="M1050.62,742.66c-7.13,31-15.29,58.66-23.29,82.67a52.91,52.91,0,0,1-34.2,33.19l-44,14c-1.61.29-3.35.73-5.1,1h-.14c-2.48.59-4.81,1-7.58,1.46.44-2.77.88-5.54,1.17-8.3q7.86-56.76,11.94-106.84A447.7,447.7,0,0,0,1050.62,742.66Z"/><path class="cls-3" d="M1006.81,326.08a2.62,2.62,0,0,0-1-.29l-78.46-11.36q-5.24.22-11.79.88a200.34,200.34,0,0,0-65.79,18.63,192.45,192.45,0,0,0-41,26.2c-3.63-5.24-7.27-9.9-10.48-13.68l5.39-2.92-10.19-17.75a218,218,0,0,1,35.08-15c38.43-12.37,70.3-10.18,86.17-9C950.77,304.39,983.08,315.16,1006.81,326.08Z"/><path class="cls-7" d="M705.51,604.67c-11.94,11.06-25.77,22.27-47.89,42.5-7.43,6.7-15.72,14.41-25.33,23.58-3.35,3.06-6.84,6.41-10.62,10-20.67,20-37.41,36.83-55.17,50.08-15.43,11.79-31.58,20.81-51.53,26.34-21.68,6.12-37.69,5.53-50.94-1.16-19.5-10-27.22-30.57-31.59-42.5C386.74,586.62,384,571.63,384,571.63c-14.55-50.36-24.16-106.25-29.11-167.24A113.23,113.23,0,0,1,317,362.47a11.67,11.67,0,0,1-1-1.89,111.46,111.46,0,0,1-9.17-26.93,140.25,140.25,0,0,1,8-17.9c4.08-7.72,14-26.64,28.68-41.2,7.42-7.56,16-13.82,25.76-17a45.49,45.49,0,0,1,13.4-2.47,48.43,48.43,0,0,1,21.83,4.8l6.11,10.92c4.08,16.88,8.59,26.05,9.75,48.61,0,1,.15,2.19.15,3.5,0,11.79-2.19,29.69-2.62,38.86v19.5c4.51,20.09,6.11,29.84,12.08,50.95a1114.05,1114.05,0,0,0,79,200.43c.29-.59.73-1,1-1.6,11.5-17.62,25.32-38.43,42.79-62.74,11.21-15.86,24-33.33,38.57-52.4,6.41-8.44,12.37-16.15,17.76-23.28a192.5,192.5,0,0,0,11.64,28.09C643.35,564.64,679.31,590.41,705.51,604.67Z"/><path class="cls-6" d="M729.52,580.07a276.21,276.21,0,0,1-24,24.6c-26.2-14.26-62.16-40-84.72-84a192.5,192.5,0,0,1-11.64-28.09c5.53-6.7,10.48-13,15.28-18.78a202.48,202.48,0,0,0,18.2,32.75C669.7,546.16,705.21,568.28,729.52,580.07Z"/><path class="cls-3" d="M827.48,390a85,85,0,0,0-31.73-13.69,87.07,87.07,0,0,0-32.75,0l-9.17,1.32c-2.62.72-5.39,1.6-8.44,2.62h-.15a225.86,225.86,0,0,0-27.07,10.62,94.51,94.51,0,0,1,46.43-26.34h.3a109.5,109.5,0,0,1,40.75-1.9h.15c1.89.29,3.63.58,5.38.88A285.44,285.44,0,0,1,827.48,390Z"/><path class="cls-3" d="M822.39,811.36c-1,9.31-2,19.07-3.06,29.11-.29,2.48-.58,5.1-.73,7.71-4.07-1.89-8.29-4.07-12.66-6.25-46.58-24-107.71-65.5-153.27-135.66a320.2,320.2,0,0,1-20.38-35.52c9.61-9.17,17.9-16.88,25.33-23.58a295.7,295.7,0,0,0,44.1,75.55C742,772.5,790.22,798.4,822.39,811.36Z"/><path class="cls-9" d="M842.77,870.75c-8.45,1.45-17.33,2.91-26.49,4.22a760.61,760.61,0,0,1-118,7,25,25,0,0,1-3.35-.15c-12.81-.29-25.91-1-39.3-2-25-2-48.62-5.24-70.59-9.17v-.14c-1.75-.15-3.64-.59-5.39-.88a75.86,75.86,0,0,1,3.79-7.71v-.15c-1.17-5.53-2.19-11.06-3.06-16.73,19.8,1.6,40.32,2.61,61.28,3.19a1260,1260,0,0,0,164.33-6.25c4.37,2.18,8.59,4.36,12.66,6.25q-.65,6.78-1.31,14A201.91,201.91,0,0,0,842.77,870.75Z"/><path class="cls-10" d="M951.93,894.62c-4.22,3-15.86,5.38-32.75,7.71-28.38,3.79-71.17,7.57-118.33,15-5.83.88-13.25,3.35-23.58,2.77-13.54-.87-25-5.82-65.5-30-5.1-3.06-9.61-5.83-13.54-8.15a760.61,760.61,0,0,0,118-7c9.16-1.31,18-2.77,26.49-4.22l7,1.74a221.7,221.7,0,0,0,62.74,5.25c8.73-.59,16.73-1.61,23.87-2.77,2.77-.44,5.09-.87,7.57-1.46h.14C953.82,884.87,955.42,892,951.93,894.62Z"/><path class="cls-11" d="M951.93,894.62l-2.18,14.26c-7.86,6.4-18.34,14.85-28.53,23-17.61,14.12-34.5,27.22-35.66,27.22-2.48,0-83.84-21-109.31-27.36l1-11.65c10.33.58,17.75-1.89,23.58-2.77,47.16-7.42,89.95-11.2,118.33-15C936.07,900,947.71,897.67,951.93,894.62Z"/><path class="cls-12" d="M949.75,908.88l-8.3,56A31.45,31.45,0,0,1,917,991.12l-34.21,7.28L763.29,1024a11.06,11.06,0,0,0,5.53-8.88l.59-7.28,6.69-74.23.14-1.89c25.47,6.4,106.84,27.36,109.32,27.36,1.16,0,18-13.1,35.66-27.22C931.41,923.73,941.89,915.28,949.75,908.88Z"/><path class="cls-12" d="M777.27,920.09l-1,11.65-.14,1.89-7-3.64-73.65-37.12c-.29-3.93-.43-7.71-.58-11.06a26.82,26.82,0,0,0,3.35.14c3.93,2.33,8.44,5.1,13.54,8.16C752.23,914.27,763.73,919.22,777.27,920.09Z"/><path class="cls-11" d="M776.1,933.63l-6.69,74.23-.59,7.28a11.06,11.06,0,0,1-5.53,8.88l-.14.14a11.73,11.73,0,0,1-11.8.44l-25.9-13.39-.88-.44-7.13-3.64c-6.11-4.8-13.1-14.12-19.36-81.36-1.16-12.23-2-23.29-2.62-32.9L769.11,930Z"/><path class="cls-5" d="M885.85,1260.54a785.89,785.89,0,0,1-104.07,32.75,741.79,741.79,0,0,1-74.38,14.27v.14c-2.48,7.43-5.1,15.14-7.72,23.15a798.34,798.34,0,0,1-136.24-9.61,805.12,805.12,0,0,1-124.88-29.84c63.17-200.14,108.73-340.89,117-364.32,7.86-22,17-42.51,17-42.51,2.48-5.53,4.81-10.47,7-15,1.75.29,3.64.73,5.39.88v.14c22,3.93,45.56,7.14,70.59,9.17,13.39,1,26.49,1.75,39.3,2,.15,3.35.29,7.13.58,11.06.59,9.61,1.46,20.67,2.62,32.9,6.26,67.24,13.25,76.56,19.36,81.36a16.72,16.72,0,0,0,7.13,3.64l.88.44,25.9,13.39a11.73,11.73,0,0,0,11.8-.44l.14-.14,119.5-25.62c.44,19.21.73,45.41-.29,76.56-1.16,32.46-3.06,55.31-3.64,63.17C876.82,1164.91,877.12,1203.63,885.85,1260.54Z"/><path class="cls-13" d="M699.68,1330.85c-4.65,14.26-9.31,29.69-14.12,46.28-1.74,5.83-3.35,11.79-5.09,17.9-20.52.73-42.79.88-66.66-.43a707.32,707.32,0,0,1-121.25-16.88c-9.9-2.33-19.65-4.81-29-7.43-16-4.37-31.15-9.17-45.41-14.26,7-22.13,13.68-43.67,20.38-64.63a805.12,805.12,0,0,0,124.88,29.84A798.34,798.34,0,0,0,699.68,1330.85Z"/><path class="cls-14" d="M707.4,1307.56c21.68-63,40.61-100.72,56.18-124.6,6.26-9.75,28.53-42.5,40-91a268.13,268.13,0,0,0,7.28-56.33"/><path class="cls-13" d="M895.89,1315.27c-9.75,3.93-19.65,7.86-29.84,11.5a1083.63,1083.63,0,0,1-124.3,38.14c-7.57,1.89-15.14,3.63-22.56,5.24-11.36,2.62-22.56,4.8-33.63,7,4.81-16.59,9.47-32,14.12-46.28,2.62-8,5.24-15.72,7.72-23.15v-.14a741.79,741.79,0,0,0,74.38-14.27,785.89,785.89,0,0,0,104.07-32.75C888.47,1277.14,891.82,1295.33,895.89,1315.27Z"/><path class="cls-7" d="M588.92,1544.38c13.53,163-9.32,320.22-40.61,440.59a281.83,281.83,0,0,1-92.87-6.11c0-320.95-6.4-442.49-14.55-473.2a131.84,131.84,0,0,1-4.81-48.62c1.75-18.34,7-28.38,19.36-63,2.19-6.12,4.95-14.12,8.15-23.73,9.32,2.62,19.07,5.1,29,7.43a707.32,707.32,0,0,0,121.25,16.88L579.16,1462C583.24,1488.48,586.59,1516,588.92,1544.38Z"/><path class="cls-4" d="M561.12,2012.92,559.8,2110l-5.67,48.48c-65.07-1.61-175.83-5-235.36-8.88v-.15a36.88,36.88,0,0,1,21.54-25c17.61-7.42,42.36-17.75,42.36-17.75A318.12,318.12,0,0,0,428.81,2049c13.82-22.27,17.32-34.36,18.77-40.62a51.85,51.85,0,0,0,1.31-6.54c2,.58,4.37,1.16,6.55,1.6a395.46,395.46,0,0,0,105.68,9.46Z"/><path class="cls-3" d="M561.55,1983.52l-.43,29.4a395.46,395.46,0,0,1-105.68-9.46c-2.18-.44-4.51-1-6.55-1.6a110.34,110.34,0,0,0,1.6-24.17,47.8,47.8,0,0,0,4.95,1.17,281.83,281.83,0,0,0,92.87,6.11C553,1984.68,557.33,1984.1,561.55,1983.52Z"/><path class="cls-3" d="M554.13,2158.48l-1.6,13.39-237.7-6.41,3.94-15.86C378.3,2153.52,489.06,2156.87,554.13,2158.48Z"/><path class="cls-7" d="M971.58,1861.11c-11.93,6.4-25.32,12.66-39.73,18.77-15.43,6.26-30.14,11.5-43.82,15.72-7.86-68.12-29.25-124.59-40.75-167.39C842,1708.42,823,1639.57,791,1577.13c-16.89-32.61-25.18-48.91-41.92-69.14-13.83-16.6-17.76-25.91-23.58-39.45-8-18-5.24-30.56-5.53-70.88-.15-7.14-.29-16.45-.73-27.51,7.42-1.61,15-3.35,22.56-5.24a1083.63,1083.63,0,0,0,124.3-38.14c-1.74,12.08-3.2,24.74-4.22,38.14-.43,4.95-.73,9.6-.87,14.41,4.51,11.93,9.17,24.16,13.54,36.53C930.54,1571,959.5,1721.52,971.58,1861.11Z"/><path class="cls-3" d="M986.14,1889.78v.14a414.85,414.85,0,0,1-77.87,33.63c-9.76,3.06-19.36,5.53-28.39,7.71L876.39,1899c3.78-1,7.71-2.19,11.64-3.35,13.68-4.22,28.39-9.46,43.82-15.72,14.41-6.11,27.8-12.37,39.73-18.77,2.62-1.32,5.1-2.77,7.57-4.08Z"/><path class="cls-4" d="M1011.32,2076.38h-215l4.52-12.52a36.94,36.94,0,0,1,12.37-17l40.17-31.29a74.6,74.6,0,0,0,28.38-67.25l-1.89-17c9-2.18,18.63-4.65,28.39-7.71a414.85,414.85,0,0,0,77.87-33.63l22.12,102.62Z"/><path class="cls-3" d="M1011.46,2079.29a11.21,11.21,0,0,1-11.2,11.65l-198.25.72a7.76,7.76,0,0,1-7.43-10.33l1.75-4.95h215Z"/><path class="cls-14" d="M598.62,910c-1.57,3.6-15.93,38,3.64,71.57,14.5,24.88,42.08,39.78,71.56,38.81l-3.64,29.12a86.63,86.63,0,0,1-34-4.86c-45.51-16.4-60-67-61.86-74"/><path class="cls-14" d="M578.91,904.59c6.56,1.88,13.43,3.62,20.62,5.15a311.1,311.1,0,0,0,80.66,6.37"/><path class="cls-4" d="M410.61,198.28l-12.81,5.83-9.46,3.63a36.09,36.09,0,0,0-20.67,45.41l1.6,4.37c-9.75,3.21-18.34,9.47-25.76,17l-8.15-19.5a75.94,75.94,0,0,1,14.27-71l11.64-14a10.31,10.31,0,0,1,2.33-2,8.8,8.8,0,0,1,2.61-1.32l16.46-6.11,10.91-4.07a11.62,11.62,0,0,1,14.85,7.13L416,185.47A10.32,10.32,0,0,1,410.61,198.28Z"/><path class="cls-3" d="M425.46,320.4l-4.95,2.48c0-1.31-.15-2.48-.15-3.5-1.16-22.56-5.67-31.73-9.75-48.61l-6.11-10.92a48.43,48.43,0,0,0-21.83-4.8,45.49,45.49,0,0,0-13.4,2.47l-1.6-4.37a36.09,36.09,0,0,1,20.67-45.41l9.46-3.63,35.66,96.2A16.16,16.16,0,0,1,425.46,320.4Z"/><path class="cls-3" d="M382.67,160.58l-16.46,6.11A8.8,8.8,0,0,0,363.6,168l-5.82-16.74L340.31,158l-9.75-26.63,38.13-13.4Z"/><polyline class="cls-15" points="778.77 936.41 886.72 966.42 944.34 919.73"/><path class="cls-15" d="M783,924s160.71-18.8,158.89-18.8"/></g></g></svg>