<svg xmlns="http://www.w3.org/2000/svg" viewBox="0 0 733.86 654.21"><defs><style>.cls-1{fill:#ffe269;}.cls-2{fill:#dbb752;opacity:0.8;}.cls-3{fill:#f2d381;}.cls-4{fill:#e8bc5b;opacity:0.6;}.cls-5{fill:#f5e37f;}.cls-6{fill:#fff;}</style></defs><title>资源 2</title><g id="图层_2" data-name="图层 2"><g id="图层_1-2" data-name="图层 1"><polygon class="cls-1" points="713.59 450.48 697.6 436.12 676.72 441.14 685.43 421.51 674.2 403.19 695.57 405.41 709.51 389.07 714 410.08 733.86 418.29 715.26 429.06 713.59 450.48"/><polygon class="cls-1" points="588.91 90.81 556.77 89.62 537.57 115.44 528.75 84.49 498.27 74.2 524.98 56.27 525.35 24.1 550.66 43.96 581.36 34.36 570.3 64.57 588.91 90.81"/><polygon class="cls-2" points="138.41 554.81 112.55 553.85 97.1 574.62 90.01 549.73 65.49 541.45 86.98 527.02 87.27 501.14 107.63 517.12 132.33 509.4 123.43 533.7 138.41 554.81"/><polygon class="cls-3" points="327.11 0 442.76 211.46 654.21 327.11 442.76 442.75 327.11 654.21 211.46 442.75 0 327.11 211.46 211.46 327.11 0"/><polygon class="cls-4" points="442.76 211.46 327.11 0 293.04 62.28 374.63 211.46 586.08 327.11 374.63 442.75 293.04 591.93 327.11 654.21 442.76 442.75 654.21 327.11 442.76 211.46"/><path class="cls-5" d="M358.1,69.35a7.36,7.36,0,0,0,5.55-2.54L357,54.57h-30.4v-21h9.1A8.2,8.2,0,0,0,343,29l-6.49-11.87a7.8,7.8,0,0,0-.83-.09h-9.1V1L211.46,211.46,0,327.11,211.46,442.75,326.55,653.2v-19H338l8.7-15.92H326.55V604.1h28l8.4-15.35H326.55V576.24H347a8.24,8.24,0,0,0,0-16.48H326.55V547.82H353A7.39,7.39,0,1,0,353,533H326.55V518.83h8.82a8.53,8.53,0,0,0,0-17.06h-8.82V487H376a8.81,8.81,0,0,0,0-17.62H326.55V451.75h31.84a7.11,7.11,0,1,0,0-14.21H326.55v-21h11.09a6.25,6.25,0,0,0,0-12.5H326.55V384.1H358.1a7.39,7.39,0,1,0,0-14.78H326.55v-21h9.1a8.25,8.25,0,0,0,0-16.49h-9.1V319.48h31a8,8,0,0,0,0-15.92h-31V289.35h38.66a7.68,7.68,0,1,0,0-15.35H326.55V261.5H347A8.25,8.25,0,0,0,347,245H326.55V233.08H353a7.4,7.4,0,0,0,0-14.79H326.55V204.08h8.82a8.53,8.53,0,0,0,0-17.05h-8.82V172.25H376a8.82,8.82,0,0,0,0-17.63H326.55V137h31.84a7.11,7.11,0,1,0,0-14.21H326.55v-21h11.09a6.26,6.26,0,0,0,0-12.51H326.55V69.35Z"/><path class="cls-6" d="M167.1,260.46a5.65,5.65,0,0,1,1.81-7.78l40.41-25.2a5.65,5.65,0,0,1,7.78,1.8h0a5.65,5.65,0,0,1-1.8,7.79l-40.41,25.2a5.66,5.66,0,0,1-7.79-1.81Z"/><path class="cls-6" d="M144.85,275.08a6.72,6.72,0,1,1,9.45.92A6.71,6.71,0,0,1,144.85,275.08Z"/></g></g></svg>