<svg id="图层_1" data-name="图层 1" xmlns="http://www.w3.org/2000/svg" xmlns:xlink="http://www.w3.org/1999/xlink" viewBox="0 0 1024 441.14"><defs><style>.cls-1{fill:url(#未命名的渐变_11);}.cls-2{fill:url(#未命名的渐变_13);}.cls-3{fill:url(#未命名的渐变_15);}.cls-4{fill:url(#未命名的渐变_17);}.cls-5{fill:url(#未命名的渐变_21);}.cls-12,.cls-6{fill:none;}.cls-7{clip-path:url(#clip-path);}.cls-8{opacity:0.9;}.cls-9{clip-path:url(#clip-path-3);}.cls-10{clip-path:url(#clip-path-4);}.cls-11{fill:url(#未命名的渐变);}.cls-12{stroke:#231815;stroke-miterlimit:10;}.cls-13{clip-path:url(#clip-path-5);}.cls-14{fill:url(#未命名的渐变_2);}.cls-15{opacity:0.33;}.cls-16{clip-path:url(#clip-path-7);}.cls-17{clip-path:url(#clip-path-8);}.cls-18{fill:url(#未命名的渐变_3);}.cls-19{opacity:0.5;}.cls-20{clip-path:url(#clip-path-9);}.cls-21{clip-path:url(#clip-path-10);}.cls-22{fill:url(#未命名的渐变_4);}.cls-23{opacity:0.6;}.cls-24{clip-path:url(#clip-path-11);}.cls-25{clip-path:url(#clip-path-12);}.cls-26{fill:url(#未命名的渐变_5);}.cls-27{opacity:0.65;}.cls-28{clip-path:url(#clip-path-13);}.cls-29{clip-path:url(#clip-path-14);}.cls-30{fill:url(#未命名的渐变_6);}.cls-31{opacity:0.7;}.cls-32{clip-path:url(#clip-path-15);}.cls-33{clip-path:url(#clip-path-16);}.cls-34{fill:url(#未命名的渐变_7);}.cls-35{clip-path:url(#clip-path-17);}.cls-36{clip-path:url(#clip-path-18);}.cls-37{fill:url(#未命名的渐变_8);}.cls-38{fill:url(#未命名的渐变_9);}.cls-39{clip-path:url(#clip-path-20);}.cls-40{mask:url(#mask);}.cls-41{fill:url(#未命名的渐变_10);}.cls-42{opacity:0.31;}.cls-43{clip-path:url(#clip-path-22);}.cls-44{clip-path:url(#clip-path-23);}.cls-45{mask:url(#mask-2);}.cls-46{fill:url(#未命名的渐变_12);}.cls-47{clip-path:url(#clip-path-24);}.cls-48{mask:url(#mask-3);}.cls-49{fill:url(#未命名的渐变_14);}.cls-50{clip-path:url(#clip-path-26);}.cls-51{clip-path:url(#clip-path-27);}.cls-52{mask:url(#mask-4);}.cls-53{fill:url(#未命名的渐变_16);}.cls-54{clip-path:url(#clip-path-28);}.cls-55{mask:url(#mask-5);}.cls-56{fill:url(#未命名的渐变_20);}</style><linearGradient id="未命名的渐变_11" y1="843.25" x2="1" y2="843.25" gradientTransform="matrix(0, -70.47, -70.47, 0, 59623.38, 323.19)" gradientUnits="userSpaceOnUse"><stop offset="0" stop-color="#fff"/><stop offset="0.83" stop-color="silver"/><stop offset="1" stop-color="#b3b3b3"/></linearGradient><linearGradient id="未命名的渐变_13" x1="0" y1="843.28" x2="1" y2="843.28" gradientTransform="translate(59623.38 321.29) rotate(90) scale(70.47)" xlink:href="#未命名的渐变_11"/><linearGradient id="未命名的渐变_15" x1="0" y1="843.28" x2="1" y2="843.28" gradientTransform="translate(-58613.55 323.19) rotate(-90) scale(70.47)" xlink:href="#未命名的渐变_11"/><linearGradient id="未命名的渐变_17" x1="0" y1="843.28" x2="1" y2="843.28" gradientTransform="matrix(0, 70.47, 70.47, 0, -58613.55, 321.29)" xlink:href="#未命名的渐变_11"/><linearGradient id="未命名的渐变_21" y1="843.28" x2="1" y2="843.28" gradientTransform="matrix(0, -118.37, -118.37, 0, 100345.88, 439.66)" gradientUnits="userSpaceOnUse"><stop offset="0" stop-color="gray"/><stop offset="1" stop-color="#fff"/></linearGradient><clipPath id="clip-path"><rect class="cls-6" y="-525.72" width="1024" height="1369"/></clipPath><clipPath id="clip-path-3"><rect class="cls-6" x="363.16" y="147.91" width="327.78" height="173.88"/></clipPath><clipPath id="clip-path-4"><path class="cls-6" d="M690.44,311.8c0,3.05-.1,6.23-.28,9.49H364c-.2-3.29-.29-6.41-.29-9.49a163.39,163.39,0,1,1,326.78,0"/></clipPath><radialGradient id="未命名的渐变" cx="0" cy="843.28" r="1" gradientTransform="matrix(163.39, 0, 0, -163.39, 527.05, 138092.63)" gradientUnits="userSpaceOnUse"><stop offset="0" stop-color="#e2cb6a"/><stop offset="0.47" stop-color="#e88c57"/><stop offset="1" stop-color="#ef3f3f"/></radialGradient><clipPath id="clip-path-5"><path class="cls-6" d="M374.39,311.8c0,3.19.11,6.35.3,9.49H679.41c.19-3.14.3-6.3.3-9.49a152.66,152.66,0,1,0-305.32,0"/></clipPath><radialGradient id="未命名的渐变_2" cx="0" cy="843.28" r="1" gradientTransform="matrix(152.66, 0, 0, -152.66, 527.05, 129046.89)" xlink:href="#未命名的渐变"/><clipPath id="clip-path-7"><rect class="cls-6" x="184.83" width="683.23" height="321.29"/></clipPath><clipPath id="clip-path-8"><path class="cls-6" d="M868.06,321.29H184.83c11.41-79.27,35-152.38,89.47-210.14C341.81,39.47,431.57,0,527,0S712.28,39.47,779.8,111.15c54.41,57.76,76.86,130.87,88.26,210.14"/></clipPath><radialGradient id="未命名的渐变_3" cx="0" cy="843.28" r="1" gradientTransform="matrix(383.29, 0, 0, -406.95, 497.98, 343301.06)" xlink:href="#未命名的渐变"/><clipPath id="clip-path-9"><rect class="cls-6" x="240.74" y="47.37" width="572.62" height="273.92"/></clipPath><clipPath id="clip-path-10"><path class="cls-6" d="M813.36,321.29H240.74c7.07-69.41,35.78-133.69,82.63-183.75C377.79,79.38,450.11,47.37,527,47.37s149.28,32,203.67,90.17c46.86,50.06,75.58,114.34,82.65,183.75"/></clipPath><radialGradient id="未命名的渐变_4" cx="0" cy="843.28" r="1" gradientTransform="matrix(321.89, 0, 0, -344.04, 503.19, 290284.22)" xlink:href="#未命名的渐变"/><clipPath id="clip-path-11"><rect class="cls-6" x="295.13" y="95.44" width="463.84" height="225.85"/></clipPath><clipPath id="clip-path-12"><path class="cls-6" d="M759,321.29H295.13a232,232,0,0,1,463.84,0"/></clipPath><radialGradient id="未命名的渐变_5" cx="0" cy="843.28" r="1" gradientTransform="matrix(265.35, 0, 0, -265.35, 507.72, 223952.16)" xlink:href="#未命名的渐变"/><clipPath id="clip-path-13"><rect class="cls-6" x="324.49" y="117.64" width="405.12" height="203.65"/></clipPath><clipPath id="clip-path-14"><path class="cls-6" d="M729.61,320.2c0,.36,0,.72,0,1.09H324.5c0-.36,0-.73,0-1.09a202.56,202.56,0,0,1,405.12,0"/></clipPath><radialGradient id="未命名的渐变_6" cx="0" cy="843.28" r="1" gradientTransform="matrix(233.45, 0, 0, -233.45, 510.17, 197062.44)" xlink:href="#未命名的渐变"/><clipPath id="clip-path-15"><rect class="cls-6" x="341.34" y="131.57" width="371.42" height="189.72"/></clipPath><clipPath id="clip-path-16"><path class="cls-6" d="M712.76,317.28c0,1.32,0,2.65,0,4H341.39c0-1.35-.05-2.68-.05-4a185.71,185.71,0,1,1,371.42,0"/></clipPath><radialGradient id="未命名的渐变_7" cx="0" cy="843.28" r="1" gradientTransform="matrix(214.84, 0, 0, -214.84, 511.57, 181378.21)" xlink:href="#未命名的渐变"/><clipPath id="clip-path-17"><rect class="cls-6" x="354.36" y="143.49" width="345.37" height="177.8"/></clipPath><clipPath id="clip-path-18"><path class="cls-6" d="M699.73,316.18c0,1.67,0,3.37-.08,5.11H354.44c-.06-1.73-.08-3.42-.08-5.11a172.69,172.69,0,1,1,345.37,0"/></clipPath><radialGradient id="未命名的渐变_8" cx="0" cy="843.28" r="1" gradientTransform="matrix(200.15, 0, 0, -200.15, 512.65, 168996.33)" xlink:href="#未命名的渐变"/><radialGradient id="未命名的渐变_9" cx="0" cy="843.28" r="1" gradientTransform="matrix(178.31, 0, 0, -178.31, 514.33, 150588.5)" gradientUnits="userSpaceOnUse"><stop offset="0" stop-color="#e2cb6a"/><stop offset="0.31" stop-color="#e79559"/><stop offset="0.63" stop-color="#eb664b"/><stop offset="0.86" stop-color="#ee4a42"/><stop offset="1" stop-color="#ef3f3f"/></radialGradient><clipPath id="clip-path-20"><polygon class="cls-6" points="205.94 278.77 173.76 297.63 159.98 286.43 146.19 297.63 123.21 286.43 77.25 268.04 0 320.52 0 323.19 402.02 323.19 361.07 297.63 314.28 307.87 314.28 288.14 296.4 277.24 282.53 271.11 267.21 287.96 253.43 315.53 236.57 287.96 236.57 274.17 216.66 252.72 205.94 278.77"/></clipPath><mask id="mask" x="0" y="252.72" width="402.02" height="70.47" maskUnits="userSpaceOnUse"><rect class="cls-1" y="252.72" width="402.02" height="70.47"/></mask><linearGradient id="未命名的渐变_10" y1="843.25" x2="1" y2="843.25" gradientTransform="matrix(0, -70.47, -70.47, 0, 59623.37, 323.19)" gradientUnits="userSpaceOnUse"><stop offset="0" stop-color="#577f93"/><stop offset="0.6" stop-color="#8ab9d0"/><stop offset="1" stop-color="#aee2fc"/></linearGradient><clipPath id="clip-path-22"><rect class="cls-6" x="-14.17" y="321.29" width="421.28" height="143.23"/></clipPath><clipPath id="clip-path-23"><polygon class="cls-6" points="-3.94 321.29 77.25 376.44 123.21 358.06 146.19 346.86 159.98 358.06 173.76 346.86 205.94 365.72 216.66 391.76 236.57 370.31 236.57 356.52 253.43 328.95 267.21 356.52 282.53 373.38 296.4 367.25 314.28 356.35 314.28 336.61 361.07 346.86 402.02 321.29 -3.94 321.29"/></clipPath><mask id="mask-2" x="-3.94" y="321.29" width="405.96" height="70.47" maskUnits="userSpaceOnUse"><rect class="cls-2" x="-3.94" y="321.29" width="405.96" height="70.47"/></mask><linearGradient id="未命名的渐变_12" x1="0" y1="843.28" x2="1" y2="843.28" gradientTransform="translate(59623.37 321.29) rotate(90) scale(70.47)" xlink:href="#未命名的渐变_10"/><clipPath id="clip-path-24"><polygon class="cls-6" points="773.25 274.17 773.25 287.96 756.4 315.53 742.62 287.96 727.3 271.11 713.43 277.24 695.55 288.14 695.55 307.87 648.76 297.63 607.81 323.19 1013.76 323.19 932.58 268.04 886.62 286.43 863.64 297.63 849.85 286.43 836.06 297.63 803.89 278.77 793.17 252.72 773.25 274.17"/></clipPath><mask id="mask-3" x="607.81" y="252.72" width="405.96" height="70.47" maskUnits="userSpaceOnUse"><rect class="cls-3" x="607.81" y="252.72" width="405.96" height="70.47"/></mask><linearGradient id="未命名的渐变_14" x1="0" y1="843.28" x2="1" y2="843.28" gradientTransform="translate(-58613.54 323.19) rotate(-90) scale(70.47)" xlink:href="#未命名的渐变_10"/><clipPath id="clip-path-26"><rect class="cls-6" x="602.72" y="321.29" width="421.28" height="143.23"/></clipPath><clipPath id="clip-path-27"><polygon class="cls-6" points="607.81 321.29 648.76 346.86 695.55 336.61 695.55 356.35 713.43 367.25 727.3 373.38 742.62 356.52 756.4 328.95 773.25 356.52 773.25 370.31 793.17 391.76 803.89 365.72 836.06 346.86 849.85 358.06 863.64 346.86 886.62 358.06 932.58 376.44 1013.76 321.29 607.81 321.29"/></clipPath><mask id="mask-4" x="607.81" y="321.29" width="405.96" height="70.47" maskUnits="userSpaceOnUse"><rect class="cls-4" x="607.81" y="321.29" width="405.96" height="70.47"/></mask><linearGradient id="未命名的渐变_16" x1="0" y1="843.28" x2="1" y2="843.28" gradientTransform="matrix(0, 70.47, 70.47, 0, -58613.54, 321.29)" xlink:href="#未命名的渐变_10"/><clipPath id="clip-path-28"><path class="cls-6" d="M439.47,321.29s6.25,11-4.09,20.65H430a6.13,6.13,0,0,0,0,12.25h5.42c2.49,0,62.31.1,66.31,9.29H490.3a6.13,6.13,0,0,0,0,12.26h6.36s-28.19,16.49-55.49,21.39H400a6.13,6.13,0,0,0,0,12.26h13.94s26.21,20.33,39.83,20.33l33.36,9.87s9.19,1.36,17.7-8.17c0,0,10.21-16.68,25.53-6.47,0,0,16.68,16.19,27.24-15.56h10.74a6.13,6.13,0,0,0,0-12.26h-7s59.57-11.55,51.4-21.39h45.9a6.13,6.13,0,0,0,0-12.26H619.89l-28.08-9.29h6.57a6.13,6.13,0,1,0,0-12.25H581.6s-11.75-11.63,2.55-20.65Z"/></clipPath><mask id="mask-5" x="393.87" y="321.29" width="270.9" height="119.85" maskUnits="userSpaceOnUse"><rect class="cls-5" x="393.87" y="321.29" width="270.9" height="119.85"/></mask><linearGradient id="未命名的渐变_20" y1="843.28" x2="1" y2="843.28" gradientTransform="matrix(0, -118.37, -118.37, 0, 100345.88, 439.66)" gradientUnits="userSpaceOnUse"><stop offset="0" stop-color="#ffd6b8"/><stop offset="1" stop-color="#ffbb8d"/></linearGradient></defs><title>元素1024-1</title><g class="cls-7"><g class="cls-7"><g class="cls-8"><g class="cls-9"><g class="cls-10"><rect class="cls-11" x="363.66" y="148.41" width="326.78" height="172.88"/></g><path class="cls-12" d="M690.44,311.8c0,3.05-.1,6.23-.28,9.49H364c-.2-3.29-.29-6.41-.29-9.49a163.39,163.39,0,1,1,326.78,0Z"/></g></g></g><g class="cls-13"><rect class="cls-14" x="374.39" y="159.14" width="305.32" height="162.15"/></g><g class="cls-7"><path class="cls-12" d="M679.71,311.8c0,3.19-.11,6.35-.3,9.49H374.69c-.19-3.14-.3-6.3-.3-9.49a152.66,152.66,0,1,1,305.32,0Z"/><g class="cls-15"><g class="cls-16"><g class="cls-17"><rect class="cls-18" x="184.83" width="683.23" height="321.29"/></g></g></g><g class="cls-19"><g class="cls-20"><g class="cls-21"><rect class="cls-22" x="240.74" y="47.37" width="572.62" height="273.92"/></g></g></g><g class="cls-23"><g class="cls-24"><g class="cls-25"><rect class="cls-26" x="295.13" y="95.44" width="463.84" height="225.85"/></g></g></g><g class="cls-27"><g class="cls-28"><g class="cls-29"><rect class="cls-30" x="324.49" y="117.64" width="405.12" height="203.65"/></g></g></g><g class="cls-31"><g class="cls-32"><g class="cls-33"><rect class="cls-34" x="341.34" y="131.57" width="371.42" height="189.72"/></g></g></g><g class="cls-31"><g class="cls-35"><g class="cls-36"><rect class="cls-37" x="354.36" y="143.49" width="345.37" height="177.8"/></g></g></g></g><g class="cls-13"><rect class="cls-38" x="374.39" y="159.14" width="305.32" height="162.15"/></g><g class="cls-39"><g class="cls-40"><rect class="cls-41" y="252.72" width="402.02" height="70.47"/></g></g><g class="cls-7"><g class="cls-42"><g class="cls-43"><g class="cls-44"><g class="cls-45"><rect class="cls-46" x="-3.94" y="321.29" width="405.96" height="70.47"/></g></g></g></g></g><g class="cls-47"><g class="cls-48"><rect class="cls-49" x="607.81" y="252.72" width="405.96" height="70.47"/></g></g><g class="cls-7"><g class="cls-42"><g class="cls-50"><g class="cls-51"><g class="cls-52"><rect class="cls-53" x="607.81" y="321.29" width="405.96" height="70.47"/></g></g></g></g></g><g class="cls-54"><g class="cls-55"><rect class="cls-56" x="393.87" y="321.29" width="270.9" height="119.85"/></g></g></g></svg>