<svg xmlns="http://www.w3.org/2000/svg" viewBox="0 0 665.02 666.95"><defs><style>.cls-1{fill:#f6dccb;}.cls-2{fill:#f4af92;}.cls-3{fill:#e88242;}.cls-4,.cls-5,.cls-6{fill:#fff;}.cls-4{opacity:0.4;}.cls-5{opacity:0.3;}.cls-6{opacity:0.1;}.cls-7{fill:#fce588;}.cls-8{fill:#ffd859;}.cls-9{fill:#e5bf55;opacity:0.7;}.cls-10{fill:#ea8151;}</style></defs><title>资源 1</title><g id="图层_2" data-name="图层 2"><g id="图层_1-2" data-name="图层 1"><circle class="cls-1" cx="332.51" cy="334.44" r="332.51" transform="translate(-139.09 333.07) rotate(-45)"/><circle class="cls-2" cx="332.51" cy="334.44" r="302.28" transform="translate(-139.09 333.07) rotate(-45)"/><circle class="cls-3" cx="332.51" cy="334.44" r="251.9"/><path class="cls-4" d="M434.39,512l60.26-64.08,138.11,29.58s-42.57,93.34-128.42,141.67Z"/><path class="cls-5" d="M533,299.7l-38.77-79,76.3-118.86s72.39,72.7,87.41,170.06Z"/><path class="cls-6" d="M231,512l-60.26-64.08L32.6,477.49S75.17,570.83,161,619.16Z"/><path class="cls-6" d="M217.14,166l83.35-28.13L331.07,0S228.48-.14,148.8,57.81Z"/><path class="cls-7" d="M536.51,334.44c0-100.7-73.37-184.23-169.55-200.15a10.35,10.35,0,0,0-4.23-.92h-2a204.84,204.84,0,0,0-27.18-1.86v1.86H320.15c-5.27,0-9.54,3.8-9.54,8.49s4.27,8.48,9.54,8.48h13.43v21.21H308.13a12.56,12.56,0,0,0,0,25.11h25.45v17.65H290.83a11.88,11.88,0,1,0,0,23.75h42.75V253H308.47a12.56,12.56,0,0,0,0,25.11h25.11v17H318.65a10.52,10.52,0,1,0,0,21h14.93v21h-30.2a8.82,8.82,0,0,0,0,17.64h30.2v20.37H318.31a8.48,8.48,0,0,0,0,17h15.27v18.54a7.07,7.07,0,0,0,0,12.46V443.7H319.67a7.47,7.47,0,1,0,0,14.93h13.91v54.3H311.36a9.33,9.33,0,1,0,0,18.66h22.22v5.77a203.52,203.52,0,0,0,48.31-5.83,9.35,9.35,0,0,0,3.22-.79C472.22,507.94,536.51,428.7,536.51,334.44Z"/><path class="cls-8" d="M392.63,316.11H333.58v-21h38a8.49,8.49,0,0,0,0-17h-38V253h13.24a7.47,7.47,0,0,0,0-14.93H333.58V214.31h37.67a8.83,8.83,0,0,0,0-17.65H333.58V171.55h10.86a9.84,9.84,0,0,0,0-19.68H333.58V131.51c-112.07,0-202.93,90.85-202.93,202.93s90.86,202.92,202.93,202.92V512.93h37a9.5,9.5,0,1,0,0-19h-37V477h46.15a9.17,9.17,0,1,0,0-18.33H333.58V443.7H358A9.84,9.84,0,0,0,358,424H333.58V409.77h31.56a8.83,8.83,0,0,0,0-17.65H333.58v-17H344.1a10.19,10.19,0,0,0,0-20.37H333.58V337.15h59.05a10.52,10.52,0,0,0,0-21Z"/><path class="cls-9" d="M183.52,251.66a204.13,204.13,0,0,1,63.73-104.29,204.74,204.74,0,0,0-110.36,135C109.33,392.21,176,503.56,285.8,531.15a204.82,204.82,0,0,0,185-44.65,204,204,0,0,1-138.42,13.9C222.6,472.83,155.93,361.46,183.52,251.66Z"/><path class="cls-10" d="M494.2,292a5.55,5.55,0,0,1-5.53-5,107.26,107.26,0,0,0-33-67.72,5.56,5.56,0,1,1,7.64-8.07,118.3,118.3,0,0,1,36.43,74.74,5.57,5.57,0,0,1-5,6.06Z"/><path class="cls-10" d="M503.36,310.41a7.42,7.42,0,1,1-7.42-7.41A7.42,7.42,0,0,1,503.36,310.41Z"/><path class="cls-8" d="M392.63,316.11H333.58v-21h38a8.49,8.49,0,0,0,0-17h-38V253h13.24a7.47,7.47,0,0,0,0-14.93H333.58V214.31h37.67a8.83,8.83,0,0,0,0-17.65H333.58V171.55h10.86a9.84,9.84,0,0,0,0-19.68H333.58V131.51c-112.07,0-202.93,90.85-202.93,202.93s90.86,202.92,202.93,202.92V512.93h37a9.5,9.5,0,1,0,0-19h-37V477h46.15a9.17,9.17,0,1,0,0-18.33H333.58V443.7H358A9.84,9.84,0,0,0,358,424H333.58V409.77h31.56a8.83,8.83,0,0,0,0-17.65H333.58v-17H344.1a10.19,10.19,0,0,0,0-20.37H333.58V337.15h59.05a10.52,10.52,0,0,0,0-21Z"/></g></g></svg>